<svg width="134" height="25" viewBox="0 0 134 25" fill="none" xmlns="http://www.w3.org/2000/svg">
<g style="mix-blend-mode:luminosity" clip-path="url(#clip0_1776_18852)">
<path d="M0 24.1349H9.5537C14.5167 24.1349 17.2463 21.7952 17.2463 17.5965C17.2463 14.9042 16.0366 13.0772 13.7722 12.308C15.8505 11.3785 16.9671 9.51956 16.9671 6.9875C16.9671 2.91699 14.1755 0.416992 9.5537 0.416992H0V24.1349ZM9.02639 4.96827C10.8565 4.96827 11.8181 5.83366 11.8181 7.50032C11.8181 9.19904 10.8255 10.1285 9.02639 10.1285H5.025V4.96827H9.02639ZM9.27454 14.4875C11.1046 14.4875 12.0972 15.3529 12.0972 16.9555C12.0972 18.7183 11.1356 19.5837 9.27454 19.5837H5.025V14.4875H9.27454Z" fill="#596CE8"/>
<path d="M25.6537 24.1349V14.5837H34.525V24.1349H39.55V0.416992H34.525V9.77597H25.6537V0.416992H20.6287V24.1349H25.6537Z" fill="#374A66"/>
<path d="M47.4494 24.1349L49.0934 19.1349H56.5068L58.1198 24.1349H63.4553L55.2972 0.416992H50.3962L42.2073 24.1349H47.4494ZM52.1953 9.71186C52.4744 8.84648 52.7226 7.94904 52.8157 7.40417C52.9087 7.98109 53.1878 8.91058 53.436 9.71186L55.08 14.776H50.5513L52.1953 9.71186Z" fill="#374A66"/>
<path d="M71.1515 24.1349V15.8337H75.0288L78.4718 24.1349H83.9621L79.9297 14.7119C82.4732 13.3657 83.745 11.1862 83.745 8.1093C83.745 3.20545 80.5811 0.416992 74.9978 0.416992H66.1265V24.1349H71.1515ZM71.1515 5.03238H74.9978C77.2311 5.03238 78.4408 6.12212 78.4408 8.1093C78.4408 10.1285 77.1691 11.2824 74.9667 11.2824H71.1515V5.03238Z" fill="#374A66"/>
<path d="M97.8114 4.90402C100.2 4.90402 102.309 5.99376 102.898 8.49376H108.172C107.644 3.36556 103.426 0.0322266 97.9354 0.0322266C90.8322 0.0322266 86.2104 5.19248 86.2104 12.3399C86.2104 19.6156 90.7081 24.4874 97.129 24.4874C99.8586 24.4874 102.34 23.4938 103.581 21.9874L103.86 24.1348H108.172V10.513H97.3771V15.0643H103.457C103.24 17.5322 101.565 19.6476 97.7804 19.6476C94.1202 19.6476 91.5146 17.2758 91.5146 12.5002C91.5146 7.91684 93.6549 4.90402 97.8114 4.90402Z" fill="#374A66"/>
<path d="M133.538 12.2436C133.538 5 128.947 0 122.278 0C115.64 0 111.049 5.03205 111.049 12.2756C111.049 19.5192 115.609 24.5192 122.247 24.5192C128.916 24.5192 133.538 19.4872 133.538 12.2436ZM128.234 12.2436C128.234 16.7308 126 19.5192 122.309 19.5192C118.587 19.5192 116.353 16.7949 116.353 12.2436C116.353 7.72436 118.587 5 122.309 5C126 5 128.234 7.72436 128.234 12.2436Z" fill="#374A66"/>
</g>
<defs>
<clipPath id="clip0_1776_18852">
<rect width="134" height="25" fill="white"/>
</clipPath>
</defs>
</svg>
