<svg width="20" height="20" viewBox="0 0 20 20" fill="none" xmlns="http://www.w3.org/2000/svg">
<path d="M10 19.1667L2.08337 14.5833V5.41666L10 0.833328L17.9167 5.41666V14.5833L10 19.1667ZM10 2.75999L3.75004 6.37749V13.6225L10 17.2408L16.25 13.6225V6.37749L10 2.75916V2.75999ZM10 13.3333C9.22885 13.3335 8.48146 13.0662 7.88521 12.5771C7.28897 12.088 6.88078 11.4073 6.73017 10.6509C6.57957 9.8946 6.69588 9.10943 7.05929 8.42923C7.4227 7.74903 8.01072 7.21588 8.72316 6.92063C9.43559 6.62538 10.2284 6.58629 10.9664 6.81002C11.7044 7.03376 12.342 7.50648 12.7706 8.14763C13.1991 8.78878 13.3921 9.5587 13.3167 10.3262C13.2412 11.0937 12.9019 11.8113 12.3567 12.3567C11.7303 12.9797 10.8835 13.3307 10 13.3333ZM10 8.33333C9.78117 8.33327 9.56443 8.37633 9.3622 8.46004C9.15997 8.54374 8.97621 8.66646 8.82141 8.82119C8.6666 8.97591 8.54379 9.15961 8.45998 9.3618C8.37618 9.56399 8.33301 9.78071 8.33296 9.99958C8.3329 10.2184 8.37596 10.4352 8.45966 10.6374C8.54337 10.8396 8.66609 11.0234 8.82082 11.1782C8.97554 11.333 9.15925 11.4558 9.36143 11.5396C9.56362 11.6234 9.78034 11.6666 9.99921 11.6667C10.4412 11.6668 10.8652 11.4913 11.1778 11.1788C11.4905 10.8663 11.6662 10.4424 11.6663 10.0004C11.6664 9.55838 11.4909 9.13442 11.1784 8.82178C10.8659 8.50914 10.4421 8.33344 10 8.33333Z" fill="#68748A"/>
</svg>
