<svg width="101" height="38" viewBox="0 0 101 38" fill="none" xmlns="http://www.w3.org/2000/svg">
<g style="mix-blend-mode:luminosity">
<path fill-rule="evenodd" clip-rule="evenodd" d="M6.47556 20.1854H8.37658C12.5947 20.1854 15.2981 17.6615 15.2981 12.9106C15.2981 8.21895 12.5355 5.69509 8.37658 5.69509H5.82202V19.5321C5.82202 19.9478 6.05973 20.1854 6.47556 20.1854ZM1.93092 5.69524H0V2.39941H8.58459C15.0903 2.39941 19.3376 6.25971 19.3376 12.9107C19.3376 19.5621 15.0903 23.4811 8.58459 23.4811H3.95069C2.52487 23.4811 1.93092 22.8874 1.93092 21.4624V5.69524Z" fill="#003B6A"/>
<path fill-rule="evenodd" clip-rule="evenodd" d="M31.8744 13.95C31.8153 12.1389 30.5678 10.8917 29.023 10.8917C27.0921 10.8917 25.7256 12.0497 25.3096 13.95H31.8744ZM29.023 7.98145C33.3596 7.98145 35.736 11.1586 35.736 15.167C35.736 15.6126 35.647 16.5628 35.647 16.5628H25.1911C25.4881 19.235 27.4485 20.6308 29.7357 20.6308C32.1717 20.6308 33.9835 18.9383 33.9835 18.9383L35.5579 21.5509C35.5579 21.5509 33.2411 23.8374 29.4685 23.8374C24.4483 23.8374 21.3292 20.2147 21.3292 15.9095C21.3292 11.2478 24.4779 7.98145 29.023 7.98145Z" fill="#003B6A"/>
<path fill-rule="evenodd" clip-rule="evenodd" d="M39.3908 12.1978C39.3908 11.7527 39.1531 11.5448 38.7373 11.5448H37.5492V8.33797H41.0249C42.3612 8.33797 43.015 8.96157 43.015 10.0305V10.4758C43.015 10.8023 42.9554 11.1289 42.9554 11.1289H43.015C43.6685 9.85224 45.3021 7.98145 48.3618 7.98145C51.7185 7.98145 53.6492 9.73354 53.6492 13.742V19.6509C53.6492 20.0666 53.8869 20.3042 54.3028 20.3042H55.4909V23.4811H51.8966C50.4708 23.4811 49.8769 22.8874 49.8769 21.4621V14.5137C49.8769 12.6731 49.4015 11.4259 47.5002 11.4259C45.4805 11.4259 43.9656 12.7027 43.4308 14.5137C43.2228 15.1378 43.1337 15.8205 43.1337 16.5331V23.4811H39.3908V12.1978Z" fill="#003B6A"/>
<path fill-rule="evenodd" clip-rule="evenodd" d="M58.5515 11.3374H56.5911V8.3383H58.6407V4.21094H62.3238V8.3383H65.7698V11.3374H62.3238V17.454C62.3238 19.9482 64.2846 20.3045 65.3241 20.3045C65.7401 20.3045 66.0073 20.2449 66.0073 20.2449V23.541C66.0073 23.541 65.5321 23.6298 64.8489 23.6298C62.7396 23.6298 58.5515 23.0064 58.5515 17.9288V11.3374Z" fill="#003B6A"/>
<path fill-rule="evenodd" clip-rule="evenodd" d="M67.5063 16.3341H72.1494V13.3086H67.5063V16.3341Z" fill="#003B6A"/>
<path fill-rule="evenodd" clip-rule="evenodd" d="M74.0393 21.9759C74.0393 24.539 76.1178 26.6169 78.6819 26.6169H96.024C98.5882 26.6169 100.667 24.539 100.667 21.9759V4.64077C100.667 2.07786 98.5882 0 96.024 0H78.6819C76.1178 0 74.0393 2.07786 74.0393 4.64077V21.9759Z" fill="#3AAEB4"/>
<path fill-rule="evenodd" clip-rule="evenodd" d="M84.8771 22.1413L86.8218 20.1974C83.2341 19.9526 80.4161 16.8383 80.4161 12.7919C80.4161 8.89039 83.274 5.88433 86.8964 5.6849L88.6822 3.89963L86.8357 2.05371C80.8485 2.27212 76.3761 6.90831 76.3761 12.7919C76.3761 18.7517 80.7062 23.4492 86.5483 23.812L84.8771 22.1413Z" fill="#003B6A"/>
<path fill-rule="evenodd" clip-rule="evenodd" d="M88.2572 2.08594L90.0718 3.89979L88.2313 5.73982C91.5773 6.20784 94.1395 9.0987 94.1395 12.7921C94.1395 16.6347 91.5978 19.6373 88.2695 20.1395L86.2667 22.1415L87.9427 23.817C93.8178 23.4849 98.1792 18.7736 98.1792 12.7921C98.1792 7.08608 93.9727 2.55396 88.2572 2.08594Z" fill="#003B6A"/>
<path fill-rule="evenodd" clip-rule="evenodd" d="M90.4047 9.38673C89.4251 8.21983 87.9285 9.12991 87.2761 9.12991C86.6221 9.12991 85.1267 8.21983 84.1483 9.38673C83.1687 10.5562 83.2189 12.1883 83.7362 13.1667C84.2509 14.1469 84.3013 15.6079 84.3188 16.226C84.336 16.8442 84.7117 17.8241 85.3238 17.8241C85.9347 17.8241 86.4691 15.0231 87.2761 15.0231C88.0839 15.0231 88.6174 17.8241 89.2271 17.8241C89.8381 17.8241 90.2161 16.8442 90.2314 16.226C90.2497 15.6079 90.3012 14.1469 90.8168 13.1667C91.3318 12.1883 91.3848 10.5562 90.4047 9.38673Z" fill="#FFFFFE"/>
<path fill-rule="evenodd" clip-rule="evenodd" d="M10.78 35.9702H11.5528C12.6854 35.9702 13.432 35.3023 13.432 34.0719C13.432 32.8478 12.6791 32.1804 11.5528 32.1804H10.636V35.8262C10.636 35.9244 10.6884 35.9702 10.78 35.9702ZM10.1776 32.1803H9.75195V31.7744H11.5986C12.9867 31.7744 13.91 32.6188 13.91 34.0718C13.91 35.538 12.9867 36.3757 11.5986 36.3757H10.5771C10.2955 36.3757 10.1776 36.2579 10.1776 35.9764V32.1803Z" fill="#003B6A"/>
<path fill-rule="evenodd" clip-rule="evenodd" d="M17.6369 34.3914C17.6107 33.7108 17.1916 33.377 16.707 33.377C16.1635 33.377 15.6854 33.7305 15.5741 34.3914H17.6369ZM16.7136 33.0039C17.6239 33.0039 18.0954 33.7043 18.0954 34.5225C18.0954 34.6009 18.0823 34.7449 18.0823 34.7449H15.5546C15.5677 35.5764 16.1505 36.054 16.8315 36.054C17.434 36.054 17.8203 35.6482 17.8203 35.6482L18.0364 35.982C18.0364 35.982 17.5584 36.4533 16.8119 36.4533C15.8361 36.4533 15.0898 35.7464 15.0898 34.732C15.0898 33.6517 15.8296 33.0039 16.7136 33.0039Z" fill="#003B6A"/>
<path fill-rule="evenodd" clip-rule="evenodd" d="M19.5537 33.6127C19.5537 33.521 19.5014 33.4687 19.4097 33.4687H19.1346V33.0825H19.593C19.8681 33.0825 19.9925 33.2003 19.9925 33.449V33.5994C19.9925 33.7305 19.9794 33.8352 19.9794 33.8352H19.9925C20.1104 33.5341 20.5295 33.0039 21.3022 33.0039C22.1207 33.0039 22.4089 33.4687 22.4089 34.2803V35.8446C22.4089 35.943 22.461 35.9888 22.5527 35.9888H22.828V36.3748H22.363C22.0814 36.3748 21.9636 36.257 21.9636 35.9755V34.3982C21.9636 33.8808 21.885 33.4228 21.2498 33.4228C20.6866 33.4228 20.202 33.8088 20.0514 34.3523C20.0121 34.4898 19.999 34.6404 19.999 34.7975V36.3748H19.5537V33.6127Z" fill="#003B6A"/>
<path fill-rule="evenodd" clip-rule="evenodd" d="M24.097 33.4568H23.6648V33.0837H24.1035V32.1738H24.5423V33.0837H25.3674V33.4568H24.5423V35.1325C24.5423 35.9047 25.0334 36.0029 25.2823 36.0029C25.3739 36.0029 25.4329 35.9898 25.4329 35.9898V36.3891C25.4329 36.3891 25.3543 36.4022 25.243 36.4022C24.8632 36.4022 24.097 36.2778 24.097 35.1784V33.4568Z" fill="#003B6A"/>
<path fill-rule="evenodd" clip-rule="evenodd" d="M26.8957 32.3374H27.3278V31.7744H26.8957V32.3374ZM26.9087 33.6134C26.9087 33.5218 26.8566 33.4694 26.7649 33.4694H26.4896V33.0832H26.9546C27.2361 33.0832 27.354 33.2011 27.354 33.4825V35.8454C27.354 35.9435 27.4064 35.9894 27.4983 35.9894H27.7731V36.3756H27.3082C27.0266 36.3756 26.9087 36.2577 26.9087 35.9763V33.6134Z" fill="#003B6A"/>
<path fill-rule="evenodd" clip-rule="evenodd" d="M29.0672 35.5699C29.0672 35.5699 29.4339 36.0671 30.0822 36.0671C30.4489 36.0671 30.7763 35.8906 30.7763 35.5437C30.7763 34.8236 28.9296 34.9546 28.9296 33.8941C28.9296 33.2985 29.4404 33.0039 30.1018 33.0039C30.4358 33.0039 31.1037 33.1348 31.1037 33.5996V33.881H30.6846V33.7239C30.6846 33.482 30.331 33.3901 30.1149 33.3901C29.6565 33.3901 29.3815 33.5472 29.3815 33.868C29.3815 34.6076 31.2279 34.4374 31.2279 35.5306C31.2279 36.0804 30.7305 36.4536 30.0756 36.4536C29.2178 36.4536 28.8118 35.8775 28.8118 35.8775L29.0672 35.5699Z" fill="#003B6A"/>
<path fill-rule="evenodd" clip-rule="evenodd" d="M32.6961 33.4568H32.2639V33.0837H32.7027V32.1738H33.1414V33.0837H33.9665V33.4568H33.1414V35.1325C33.1414 35.9047 33.6325 36.0029 33.8814 36.0029C33.9731 36.0029 34.032 35.9898 34.032 35.9898V36.3891C34.032 36.3891 33.9534 36.4022 33.8421 36.4022C33.4623 36.4022 32.6961 36.2778 32.6961 35.1784V33.4568Z" fill="#003B6A"/>
<path fill-rule="evenodd" clip-rule="evenodd" d="M35.4922 33.6137C35.4922 33.5221 35.4398 33.4697 35.3482 33.4697H35.0731V33.0835H35.5315C35.8065 33.0835 35.931 33.1948 35.931 33.4566V33.6792C35.931 33.8166 35.9179 33.9277 35.9179 33.9277H35.931C36.0881 33.4304 36.4548 33.0508 36.9722 33.0508C37.0639 33.0508 37.149 33.0704 37.149 33.0704V33.509C37.149 33.509 37.0702 33.4959 36.9853 33.4959C36.5203 33.4959 36.1733 33.8625 36.0292 34.3466C35.9637 34.5561 35.9375 34.7789 35.9375 34.9883V36.3758H35.4922V33.6137Z" fill="#003B6A"/>
<path fill-rule="evenodd" clip-rule="evenodd" d="M38.7992 37.3507C39.0874 37.3507 39.2838 37.115 39.4082 36.8139L39.6047 36.3625L38.4456 33.6198C38.3932 33.5019 38.3343 33.4692 38.2164 33.4692H38.1509V33.083H38.3539C38.6486 33.083 38.7403 33.1485 38.8582 33.443L39.7029 35.4984C39.7684 35.6621 39.8208 35.8519 39.8208 35.8519H39.8339C39.8339 35.8519 39.8797 35.6621 39.9452 35.4984L40.7572 33.443C40.8685 33.1485 40.9668 33.083 41.268 33.083H41.471V33.4692H41.4053C41.2876 33.4692 41.2222 33.5019 41.1763 33.6198L39.7553 37.0629C39.585 37.4818 39.2511 37.75 38.8123 37.75C38.3539 37.75 38.0988 37.4292 38.0988 37.4292L38.3081 37.1019C38.3081 37.1087 38.5176 37.3507 38.7992 37.3507Z" fill="#003B6A"/>
<path fill-rule="evenodd" clip-rule="evenodd" d="M45.0987 32.3243C45.066 32.2001 44.9808 32.1805 44.8564 32.1805H44.7778V31.7744H44.9808C45.3083 31.7744 45.4589 31.8333 45.5375 32.1543L46.3364 35.3288C46.3951 35.5644 46.4346 35.8197 46.4346 35.8197H46.4477C46.4477 35.8197 46.5066 35.5644 46.5721 35.3288L47.5869 31.7941H48.039L48.9621 35.3288C49.0276 35.5644 49.0671 35.8197 49.0671 35.8197H49.08C49.08 35.8197 49.1258 35.5644 49.1847 35.3288L49.9836 32.1543C50.0622 31.8333 50.2128 31.7744 50.5403 31.7744H50.7433V32.1805H50.6712C50.5403 32.1805 50.4617 32.2001 50.4289 32.3243L49.3683 36.3759H48.8246L47.9669 33.1752C47.8881 32.8807 47.8161 32.4945 47.8161 32.4945H47.8032C47.8032 32.4945 47.7244 32.8743 47.6395 33.1687L46.6965 36.3759H46.153L45.0987 32.3243Z" fill="#003B6A"/>
<path fill-rule="evenodd" clip-rule="evenodd" d="M54.009 34.3914C53.9828 33.7108 53.5637 33.377 53.0791 33.377C52.5358 33.377 52.0577 33.7305 51.9464 34.3914H54.009ZM53.0858 33.0039C53.9958 33.0039 54.4675 33.7043 54.4675 34.5225C54.4675 34.6009 54.4542 34.7449 54.4542 34.7449H51.9267C51.9398 35.5764 52.5224 36.054 53.2037 36.054C53.8059 36.054 54.1923 35.6482 54.1923 35.6482L54.4084 35.982C54.4084 35.982 53.9306 36.4533 53.184 36.4533C52.2083 36.4533 51.4618 35.7464 51.4618 34.732C51.4618 33.6517 52.2018 33.0039 53.0858 33.0039Z" fill="#003B6A"/>
<path fill-rule="evenodd" clip-rule="evenodd" d="M55.8826 32.3046C55.8826 32.213 55.8302 32.1606 55.7385 32.1606H55.4635V31.7744H55.9284C56.21 31.7744 56.3279 31.8922 56.3279 32.1737V35.8457C56.3279 35.9441 56.3801 35.9899 56.472 35.9899H56.747V36.3759H56.2821C56.0005 36.3759 55.8826 36.2581 55.8826 35.9766V32.3046Z" fill="#003B6A"/>
<path fill-rule="evenodd" clip-rule="evenodd" d="M58.0201 32.3046C58.0201 32.213 57.9677 32.1606 57.876 32.1606H57.601V31.7744H58.0659C58.3475 31.7744 58.4653 31.8922 58.4653 32.1737V35.8457C58.4653 35.9441 58.5175 35.9899 58.6092 35.9899H58.8845V36.3759H58.4195C58.1379 36.3759 58.0201 36.2581 58.0201 35.9766V32.3046Z" fill="#003B6A"/>
<path fill-rule="evenodd" clip-rule="evenodd" d="M63.4551 35.9702H64.2278C65.3605 35.9702 66.107 35.3023 66.107 34.0719C66.107 32.8478 65.354 32.1804 64.2278 32.1804H63.3111V35.8262C63.3111 35.9244 63.3634 35.9702 63.4551 35.9702ZM62.8527 32.1803H62.427V31.7744H64.2737C65.6617 31.7744 66.5853 32.6188 66.5853 34.0718C66.5853 35.538 65.6617 36.3757 64.2737 36.3757H63.2521C62.9705 36.3757 62.8527 36.2579 62.8527 35.9764V32.1803Z" fill="#003B6A"/>
<path fill-rule="evenodd" clip-rule="evenodd" d="M70.3119 34.3914C70.2857 33.7108 69.8666 33.377 69.382 33.377C68.8387 33.377 68.3607 33.7305 68.2494 34.3914H70.3119ZM69.3888 33.0039C70.2988 33.0039 70.7705 33.7043 70.7705 34.5225C70.7705 34.6009 70.7572 34.7449 70.7572 34.7449H68.2297C68.2428 35.5764 68.8254 36.054 69.5067 36.054C70.1089 36.054 70.4953 35.6482 70.4953 35.6482L70.7114 35.982C70.7114 35.982 70.2335 36.4533 69.487 36.4533C68.5113 36.4533 67.7648 35.7464 67.7648 34.732C67.7648 33.6517 68.5047 33.0039 69.3888 33.0039Z" fill="#003B6A"/>
<path fill-rule="evenodd" clip-rule="evenodd" d="M74.1839 32.3371H74.6159V31.7742H74.1839V32.3371ZM72.2391 33.4562H71.8265V33.0831H72.2391V32.9653C72.2391 31.8787 73.0053 31.7412 73.372 31.7412C73.4964 31.7412 73.575 31.7543 73.575 31.7543V32.1536C73.575 32.1536 73.5095 32.1405 73.4113 32.1405C73.1624 32.1405 72.6844 32.2321 72.6844 32.9653V33.0831H74.2427C74.5245 33.0831 74.6424 33.2009 74.6424 33.4824V35.8452C74.6424 35.9434 74.6948 35.9892 74.7864 35.9892H75.0613V36.3754H74.5965C74.315 36.3754 74.1971 36.2576 74.1971 35.9761V33.6C74.1971 33.5084 74.1445 33.4562 74.0528 33.4562H72.6844V36.3754H72.2391V33.4562Z" fill="#003B6A"/>
<path fill-rule="evenodd" clip-rule="evenodd" d="M76.3581 33.6127C76.3581 33.521 76.3057 33.4687 76.214 33.4687H75.939V33.0825H76.3974C76.6722 33.0825 76.7968 33.2003 76.7968 33.449V33.5994C76.7968 33.7305 76.7835 33.8352 76.7835 33.8352H76.7968C76.9147 33.5341 77.3338 33.0039 78.1063 33.0039C78.9248 33.0039 79.213 33.4687 79.213 34.2803V35.8446C79.213 35.943 79.2654 35.9888 79.357 35.9888H79.6321V36.3748H79.1671C78.8856 36.3748 78.7677 36.257 78.7677 35.9755V34.3982C78.7677 33.8808 78.6891 33.4228 78.0541 33.4228C77.4907 33.4228 77.0064 33.8088 76.8555 34.3523C76.8165 34.4898 76.8031 34.6404 76.8031 34.7975V36.3748H76.3581V33.6127Z" fill="#003B6A"/>
<path fill-rule="evenodd" clip-rule="evenodd" d="M83.1466 34.3914C83.1205 33.7108 82.7014 33.377 82.2168 33.377C81.6735 33.377 81.1954 33.7305 81.0841 34.3914H83.1466ZM82.2235 33.0039C83.1335 33.0039 83.6052 33.7043 83.6052 34.5225C83.6052 34.6009 83.5919 34.7449 83.5919 34.7449H81.0644C81.0775 35.5764 81.6601 36.054 82.3414 36.054C82.9436 36.054 83.33 35.6482 83.33 35.6482L83.5461 35.982C83.5461 35.982 83.0683 36.4533 82.3217 36.4533C81.346 36.4533 80.5995 35.7464 80.5995 34.732C80.5995 33.6517 81.3395 33.0039 82.2235 33.0039Z" fill="#003B6A"/>
<path fill-rule="evenodd" clip-rule="evenodd" d="M87.3774 34.7263C87.3774 34.0586 87.0368 33.4041 86.3296 33.4041C85.7468 33.4041 85.269 33.895 85.269 34.7263C85.269 35.538 85.6944 36.0551 86.31 36.0551C86.86 36.0551 87.3774 35.6624 87.3774 34.7263ZM86.2906 33.0048C87.0893 33.0048 87.3643 33.6203 87.3643 33.6203H87.3774C87.3774 33.6203 87.3643 33.5088 87.3643 33.3714V32.3044C87.3643 32.2128 87.3119 32.1604 87.2203 32.1604H86.9454V31.7744H87.4102C87.6915 31.7744 87.8094 31.8922 87.8094 32.1737V35.8457C87.8094 35.9439 87.862 35.9897 87.9537 35.9897H88.2285V36.3759H87.7703C87.4953 36.3759 87.3774 36.2515 87.3774 36.0093C87.3774 35.885 87.3905 35.7999 87.3905 35.7999H87.3774C87.3774 35.7999 87.1089 36.4545 86.2448 36.4545C85.3607 36.4545 84.8104 35.7475 84.8104 34.7264C84.8104 33.6856 85.4262 33.0048 86.2906 33.0048Z" fill="#003B6A"/>
</g>
</svg>
