<svg width="22" height="16" viewBox="0 0 22 16" fill="none" xmlns="http://www.w3.org/2000/svg">
<path fill-rule="evenodd" clip-rule="evenodd" d="M13.3099 9.25683C12.5606 9.83591 11.4677 10.6805 10.6667 10.6667C9.8656 10.6805 8.77272 9.83591 8.0234 9.25683C7.86848 9.13711 7.72825 9.02874 7.60832 8.94165C2.48359 5.22264 1.74722 4.64637 0.651731 3.78907C0.565282 3.72142 0.476596 3.65202 0.383341 3.57918C0.141683 3.38749 0 3.10002 0 2.79167V2C0 0.895833 0.895833 0 2 0H19.3333C20.4375 0 21.3333 0.895833 21.3333 2V2.79167C21.3333 3.10002 21.1917 3.39168 20.95 3.57918C20.8787 3.63512 20.81 3.68902 20.743 3.74165C19.6119 4.6298 18.9449 5.15361 13.725 8.94165C13.6051 9.02874 13.4649 9.13711 13.3099 9.25683ZM21.3333 13.9995C21.3333 15.1037 20.4375 15.9995 19.3333 15.9995H2C0.895833 15.9995 0 15.1037 0 13.9995V5.48286C0 5.27452 0.237508 5.15786 0.404175 5.28705C0.686996 5.50674 0.99775 5.74442 1.4118 6.05492L1.67323 6.2504C2.63584 6.96824 4.12045 8.05561 6.82499 10.0204C6.95828 10.1177 7.10545 10.2312 7.26438 10.3538C8.15383 11.0401 9.41174 12.0108 10.6667 12.0037C11.9274 12.0143 13.2061 11.0252 14.0817 10.3479C14.2391 10.2261 14.3836 10.1144 14.5125 10.0204C18.7625 6.93289 19.9958 6.00788 20.9292 5.28286C21.0917 5.15371 21.3333 5.27452 21.3333 5.4787V13.9995Z" fill="#183B56"/>
</svg>
