<svg width="20" height="20" viewBox="0 0 20 20" fill="none" xmlns="http://www.w3.org/2000/svg">
<path d="M8.79167 2.11001C9.12981 1.82503 9.55779 1.66873 10 1.66873C10.4422 1.66873 10.8702 1.82503 11.2083 2.11001L16.8333 6.85334C17.2558 7.21001 17.5 7.73418 17.5 8.28668V16.4558C17.5 16.8426 17.3464 17.2136 17.0729 17.487C16.7994 17.7605 16.4284 17.9142 16.0417 17.9142H13.125C12.7382 17.9142 12.3673 17.7605 12.0938 17.487C11.8203 17.2136 11.6667 16.8426 11.6667 16.4558V11.8725C11.6667 11.8173 11.6447 11.7643 11.6056 11.7252C11.5666 11.6861 11.5136 11.6642 11.4583 11.6642H8.54167C8.48641 11.6642 8.43342 11.6861 8.39435 11.7252C8.35528 11.7643 8.33333 11.8173 8.33333 11.8725V16.4558C8.33333 16.8426 8.17969 17.2136 7.9062 17.487C7.63271 17.7605 7.26177 17.9142 6.875 17.9142H3.95833C3.76682 17.9142 3.57719 17.8765 3.40025 17.8032C3.22332 17.7299 3.06255 17.6225 2.92714 17.487C2.79172 17.3516 2.6843 17.1909 2.61101 17.0139C2.53772 16.837 2.5 16.6474 2.5 16.4558V8.28668C2.5 7.73418 2.74417 7.21001 3.16667 6.85334L8.79167 2.11001ZM10.4025 3.06584C10.2898 2.971 10.1473 2.91899 10 2.91899C9.85272 2.91899 9.71017 2.971 9.5975 3.06584L3.9725 7.80834C3.90289 7.86694 3.84691 7.94003 3.80848 8.02251C3.77005 8.10498 3.75009 8.19485 3.75 8.28584V16.455C3.75 16.57 3.84333 16.6633 3.95833 16.6633H6.875C6.93025 16.6633 6.98324 16.6414 7.02231 16.6023C7.06138 16.5633 7.08333 16.5103 7.08333 16.455V11.8717C7.08333 11.0658 7.73667 10.4133 8.54167 10.4133H11.4583C12.2633 10.4133 12.9167 11.0658 12.9167 11.8717V16.455C12.9167 16.57 13.01 16.6633 13.125 16.6633H16.0417C16.0969 16.6633 16.1499 16.6414 16.189 16.6023C16.2281 16.5633 16.25 16.5103 16.25 16.455V8.28668C16.2499 8.19569 16.2299 8.10582 16.1915 8.02334C16.1531 7.94086 16.0971 7.86777 16.0275 7.80918L10.4025 3.06584Z" fill="white"/>
</svg>
