<svg width="220" height="40" viewBox="0 0 220 40" fill="none" xmlns="http://www.w3.org/2000/svg">
<path d="M12.5 16C12.5 16.4 12.8333 16.5 13 16.5C13.6667 15.5 15.1 13.4 15.5 13C15.9 12.6 15.3333 12.5 15 12.5C14.1667 13.5 12.5 15.6 12.5 16Z" fill="#2F2F2F"/>
<circle cx="199" cy="5" r="5" fill="black"/>
<circle cx="215" cy="5" r="5" fill="#4E4E4E"/>
<circle cx="215" cy="20" r="5" fill="#999999"/>
<path d="M0 31.4995C0 32.4995 1.66667 33.9995 2.5 34.4995C5.68737 36.4119 9.5 35.4995 11.5 34.4995C13.3439 33.5776 16 30.9995 16.9998 28.9995C18.746 25.5065 17.5 19.9995 17 18.9995C16.5 17.9995 14.9998 15.9996 10.9998 14.9996C6.99982 13.9996 4.49982 15.9996 2.99982 17.4996C1.49982 18.9996 1 21.9995 1 24.9995C1 26.4995 2.39443 28.2107 1.5 29.9995C1 30.9995 1.07511e-07 30.3815 0 31.4995Z" fill="#C1C1C1"/>
<path d="M16.9999 18C15.3999 16 14.6665 14.1667 14.4999 13.5C14.4999 14 13.4999 18.5 13.9999 22C14.3999 24.8 17.8332 28.8333 19.4999 30.5C19.4999 30 19.9999 26.5 19.9999 25C19.9999 23.5 18.9999 20.5 16.9999 18Z" fill="#868686"/>
<path d="M29.672 34C29.4587 34 29.2667 33.9253 29.096 33.776C28.9467 33.6053 28.872 33.4133 28.872 33.2V18.48H22.888C22.6747 18.48 22.4827 18.4053 22.312 18.256C22.1627 18.0853 22.088 17.8933 22.088 17.68C22.088 17.4453 22.1627 17.2533 22.312 17.104C22.4827 16.9547 22.6747 16.88 22.888 16.88H36.584C36.8187 16.88 37.0107 16.9547 37.16 17.104C37.3093 17.2533 37.384 17.4453 37.384 17.68C37.384 17.8933 37.3093 18.0853 37.16 18.256C37.0107 18.4053 36.8187 18.48 36.584 18.48H30.472V33.2C30.472 33.4133 30.3973 33.6053 30.248 33.776C30.0987 33.9253 29.9067 34 29.672 34ZM54.7248 34C54.5114 34 54.3194 33.9253 54.1488 33.776C53.9994 33.6053 53.9248 33.4133 53.9248 33.2V25.68H43.2048V33.2C43.2048 33.4133 43.1301 33.6053 42.9808 33.776C42.8314 33.9253 42.6394 34 42.4048 34C42.1914 34 41.9994 33.9253 41.8288 33.776C41.6794 33.6053 41.6048 33.4133 41.6048 33.2V17.68C41.6048 17.4453 41.6794 17.2533 41.8288 17.104C41.9994 16.9547 42.1914 16.88 42.4048 16.88C42.6394 16.88 42.8314 16.9547 42.9808 17.104C43.1301 17.2533 43.2048 17.4453 43.2048 17.68V24.08H53.9248V17.68C53.9248 17.4453 53.9994 17.2533 54.1488 17.104C54.3194 16.9547 54.5114 16.88 54.7248 16.88C54.9594 16.88 55.1514 16.9547 55.3008 17.104C55.4501 17.2533 55.5248 17.4453 55.5248 17.68V33.2C55.5248 33.4133 55.4501 33.6053 55.3008 33.776C55.1514 33.9253 54.9594 34 54.7248 34ZM62.5923 34C62.3789 34 62.1869 33.9253 62.0163 33.776C61.8669 33.6053 61.7923 33.4133 61.7923 33.2V17.68C61.7923 17.4667 61.8563 17.2853 61.9843 17.136C62.1336 16.9653 62.3043 16.88 62.4963 16.88H71.4563C71.6909 16.88 71.8829 16.9547 72.0323 17.104C72.1816 17.2533 72.2563 17.4453 72.2563 17.68C72.2563 17.8933 72.1816 18.0853 72.0323 18.256C71.8829 18.4053 71.6909 18.48 71.4563 18.48H63.3923V24.048H70.0803C70.3149 24.048 70.5069 24.1227 70.6563 24.272C70.8056 24.4213 70.8803 24.6133 70.8803 24.848C70.8803 25.0613 70.8056 25.2533 70.6563 25.424C70.5069 25.5733 70.3149 25.648 70.0803 25.648H63.3923V32.4H71.5203C71.7549 32.4 71.9469 32.4747 72.0963 32.624C72.2456 32.7733 72.3203 32.9653 72.3203 33.2C72.3203 33.4133 72.2456 33.6053 72.0963 33.776C71.9469 33.9253 71.7549 34 71.5203 34H62.5923ZM95.3088 18.992C94.7968 18.7787 94.2314 18.608 93.6128 18.48C93.0154 18.352 92.2261 18.288 91.2448 18.288C90.1568 18.288 89.2928 18.5653 88.6528 19.12C88.0127 19.6533 87.6927 20.2613 87.6927 20.944C87.6927 21.6267 87.9914 22.2453 88.5888 22.8C89.1861 23.3547 90.3488 23.8347 92.0768 24.24C93.6128 24.5813 94.7968 25.0187 95.6288 25.552C96.4821 26.0853 97.0794 26.6933 97.4208 27.376C97.7621 28.0373 97.9328 28.7733 97.9328 29.584C97.9328 30.3733 97.7301 31.1307 97.3248 31.856C96.9408 32.56 96.3008 33.1467 95.4048 33.616C94.5301 34.064 93.3568 34.288 91.8848 34.288C89.7941 34.288 87.8634 33.7973 86.0928 32.816C85.8154 32.6453 85.6768 32.4107 85.6768 32.112C85.6768 31.92 85.7514 31.7387 85.9008 31.568C86.0501 31.3973 86.2421 31.312 86.4768 31.312C86.6048 31.312 86.7328 31.344 86.8608 31.408C88.3754 32.2613 90.0501 32.688 91.8848 32.688C93.3354 32.688 94.4341 32.3893 95.1808 31.792C95.9488 31.1733 96.3328 30.4373 96.3328 29.584C96.3328 28.688 95.9701 27.9413 95.2448 27.344C94.5408 26.7467 93.3781 26.2453 91.7568 25.84C90.2421 25.456 89.0688 25.0187 88.2368 24.528C87.4261 24.0373 86.8608 23.4827 86.5408 22.864C86.2421 22.2453 86.0928 21.5627 86.0928 20.816C86.0928 20.1333 86.2848 19.4827 86.6688 18.864C87.0741 18.224 87.6608 17.7013 88.4288 17.296C89.1968 16.8907 90.1354 16.688 91.2448 16.688C92.4181 16.688 93.3568 16.784 94.0608 16.976C94.7861 17.1467 95.5434 17.392 96.3328 17.712C96.6741 17.84 96.8448 18.0853 96.8448 18.448C96.8448 18.6613 96.7594 18.8533 96.5888 19.024C96.4394 19.1733 96.2581 19.248 96.0448 19.248C96.0021 19.248 95.9381 19.2373 95.8528 19.216C95.7674 19.1733 95.5861 19.0987 95.3088 18.992ZM110.117 16.592C111.631 16.592 113.007 16.9653 114.245 17.712C115.503 18.4587 116.495 19.504 117.221 20.848C117.967 22.1707 118.341 23.7067 118.341 25.456C118.341 27.12 118.01 28.624 117.349 29.968C116.709 31.2907 115.77 32.3467 114.533 33.136C113.317 33.904 111.845 34.288 110.117 34.288C108.495 34.288 107.055 33.904 105.797 33.136C104.538 32.3467 103.546 31.2907 102.821 29.968C102.117 28.6453 101.765 27.1733 101.765 25.552C101.765 23.76 102.117 22.192 102.821 20.848C103.525 19.504 104.495 18.4587 105.733 17.712C106.991 16.9653 108.453 16.592 110.117 16.592ZM110.117 18.192C108.773 18.192 107.589 18.512 106.565 19.152C105.562 19.7707 104.773 20.6347 104.197 21.744C103.642 22.832 103.365 24.1013 103.365 25.552C103.365 26.8533 103.642 28.048 104.197 29.136C104.773 30.224 105.573 31.088 106.597 31.728C107.621 32.368 108.794 32.688 110.117 32.688C111.525 32.688 112.719 32.368 113.701 31.728C114.703 31.088 115.461 30.224 115.972 29.136C116.485 28.0267 116.741 26.8 116.741 25.456C116.741 24.048 116.442 22.8 115.845 21.712C115.269 20.624 114.479 19.7707 113.477 19.152C112.474 18.512 111.354 18.192 110.117 18.192ZM125.177 33.2C125.177 33.4133 125.103 33.6053 124.953 33.776C124.804 33.9253 124.612 34 124.377 34C124.164 34 123.972 33.9253 123.801 33.776C123.652 33.6053 123.577 33.4133 123.577 33.2V17.68C123.577 17.4453 123.652 17.2533 123.801 17.104C123.972 16.9547 124.164 16.88 124.377 16.88C124.612 16.88 124.804 16.9547 124.953 17.104C125.103 17.2533 125.177 17.4453 125.177 17.68V33.2ZM132.405 34C132.191 34 131.999 33.9253 131.829 33.776C131.679 33.6053 131.605 33.4133 131.605 33.2V17.68C131.605 17.4453 131.679 17.2533 131.829 17.104C131.999 16.9547 132.191 16.88 132.405 16.88C132.639 16.88 132.831 16.9547 132.981 17.104C133.13 17.2533 133.205 17.4453 133.205 17.68V32.4H141.077C141.311 32.4 141.503 32.4747 141.653 32.624C141.802 32.7733 141.877 32.9653 141.877 33.2C141.877 33.4133 141.802 33.6053 141.653 33.776C141.503 33.9253 141.311 34 141.077 34H132.405ZM164.215 18.992C163.703 18.7787 163.138 18.608 162.519 18.48C161.922 18.352 161.132 18.288 160.151 18.288C159.063 18.288 158.199 18.5653 157.559 19.12C156.919 19.6533 156.599 20.2613 156.599 20.944C156.599 21.6267 156.898 22.2453 157.495 22.8C158.092 23.3547 159.255 23.8347 160.983 24.24C162.519 24.5813 163.703 25.0187 164.535 25.552C165.388 26.0853 165.986 26.6933 166.327 27.376C166.668 28.0373 166.839 28.7733 166.839 29.584C166.839 30.3733 166.636 31.1307 166.231 31.856C165.847 32.56 165.207 33.1467 164.311 33.616C163.436 34.064 162.263 34.288 160.791 34.288C158.7 34.288 156.77 33.7973 154.999 32.816C154.722 32.6453 154.583 32.4107 154.583 32.112C154.583 31.92 154.658 31.7387 154.807 31.568C154.956 31.3973 155.148 31.312 155.383 31.312C155.511 31.312 155.639 31.344 155.767 31.408C157.282 32.2613 158.956 32.688 160.791 32.688C162.242 32.688 163.34 32.3893 164.087 31.792C164.855 31.1733 165.239 30.4373 165.239 29.584C165.239 28.688 164.876 27.9413 164.151 27.344C163.447 26.7467 162.284 26.2453 160.663 25.84C159.148 25.456 157.975 25.0187 157.143 24.528C156.332 24.0373 155.767 23.4827 155.447 22.864C155.148 22.2453 154.999 21.5627 154.999 20.816C154.999 20.1333 155.191 19.4827 155.575 18.864C155.98 18.224 156.567 17.7013 157.335 17.296C158.103 16.8907 159.042 16.688 160.151 16.688C161.324 16.688 162.263 16.784 162.967 16.976C163.692 17.1467 164.45 17.392 165.239 17.712C165.58 17.84 165.751 18.0853 165.751 18.448C165.751 18.6613 165.666 18.8533 165.495 19.024C165.346 19.1733 165.164 19.248 164.951 19.248C164.908 19.248 164.844 19.2373 164.759 19.216C164.674 19.1733 164.492 19.0987 164.215 18.992ZM179.023 16.592C180.537 16.592 181.913 16.9653 183.151 17.712C184.409 18.4587 185.401 19.504 186.127 20.848C186.873 22.1707 187.247 23.7067 187.247 25.456C187.247 27.12 186.916 28.624 186.255 29.968C185.615 31.2907 184.676 32.3467 183.439 33.136C182.223 33.904 180.751 34.288 179.023 34.288C177.401 34.288 175.961 33.904 174.703 33.136C173.444 32.3467 172.452 31.2907 171.727 29.968C171.023 28.6453 170.671 27.1733 170.671 25.552C170.671 23.76 171.023 22.192 171.727 20.848C172.431 19.504 173.401 18.4587 174.639 17.712C175.897 16.9653 177.359 16.592 179.023 16.592ZM179.023 18.192C177.679 18.192 176.495 18.512 175.471 19.152C174.468 19.7707 173.679 20.6347 173.103 21.744C172.548 22.832 172.271 24.1013 172.271 25.552C172.271 26.8533 172.548 28.048 173.103 29.136C173.679 30.224 174.479 31.088 175.503 31.728C176.527 32.368 177.7 32.688 179.023 32.688C180.431 32.688 181.625 32.368 182.607 31.728C183.609 31.088 184.367 30.224 184.879 29.136C185.391 28.0267 185.647 26.8 185.647 25.456C185.647 24.048 185.348 22.8 184.751 21.712C184.175 20.624 183.385 19.7707 182.383 19.152C181.38 18.512 180.26 18.192 179.023 18.192ZM204.74 33.68C204.014 32.6987 203.172 31.6 202.212 30.384C201.273 29.168 200.302 27.9307 199.3 26.672C198.297 25.392 197.326 24.1547 196.388 22.96C195.47 21.7653 194.649 20.7093 193.924 19.792V33.2C193.924 33.4133 193.849 33.6053 193.7 33.776C193.55 33.9253 193.358 34 193.124 34C192.91 34 192.718 33.9253 192.548 33.776C192.398 33.6053 192.324 33.4133 192.324 33.2V17.68C192.324 17.4453 192.398 17.2533 192.548 17.104C192.718 16.9547 192.9 16.88 193.092 16.88C193.518 16.88 193.806 16.9867 193.956 17.2C194.489 17.904 195.182 18.8107 196.036 19.92C196.889 21.008 197.817 22.2027 198.82 23.504C199.844 24.784 200.868 26.0853 201.892 27.408C202.937 28.7093 203.897 29.936 204.772 31.088V17.68C204.772 17.4453 204.846 17.2533 204.996 17.104C205.166 16.9547 205.358 16.88 205.572 16.88C205.806 16.88 205.998 16.9547 206.148 17.104C206.297 17.2533 206.372 17.4453 206.372 17.68V33.2C206.372 33.4133 206.297 33.6053 206.148 33.776C205.998 33.9253 205.817 34 205.604 34C205.177 34 204.889 33.8933 204.74 33.68Z" fill="#363636"/>
<path d="M29.096 33.776L28.3434 34.4345L28.3873 34.4847L28.4375 34.5286L29.096 33.776ZM28.872 18.48H29.872V17.48H28.872V18.48ZM22.312 18.256L21.5594 18.9145L21.6033 18.9647L21.6535 19.0086L22.312 18.256ZM22.312 17.104L21.6535 16.3514L21.6284 16.3733L21.6049 16.3969L22.312 17.104ZM37.16 17.104L36.4529 17.8111L36.4529 17.8111L37.16 17.104ZM37.16 18.256L37.8671 18.9631L37.8906 18.9396L37.9126 18.9145L37.16 18.256ZM30.472 18.48V17.48H29.472V18.48H30.472ZM30.248 33.776L30.9551 34.4831L30.9787 34.4596L31.0006 34.4345L30.248 33.776ZM29.672 33C29.6848 33 29.7068 33.0028 29.7304 33.012C29.7532 33.0208 29.7611 33.0292 29.7545 33.0234L28.4375 34.5286C28.778 34.8265 29.2003 35 29.672 35V33ZM29.8486 33.1175C29.8428 33.1109 29.8512 33.1188 29.86 33.1416C29.8692 33.1652 29.872 33.1872 29.872 33.2H27.872C27.872 33.6717 28.0455 34.094 28.3434 34.4345L29.8486 33.1175ZM29.872 33.2V18.48H27.872V33.2H29.872ZM28.872 17.48H22.888V19.48H28.872V17.48ZM22.888 17.48C22.9008 17.48 22.9228 17.4828 22.9464 17.492C22.9692 17.5008 22.9771 17.5092 22.9705 17.5034L21.6535 19.0086C21.994 19.3065 22.4163 19.48 22.888 19.48V17.48ZM23.0646 17.5975C23.0588 17.5909 23.0672 17.5988 23.076 17.6216C23.0852 17.6452 23.088 17.6672 23.088 17.68H21.088C21.088 18.1517 21.2615 18.574 21.5594 18.9145L23.0646 17.5975ZM23.088 17.68C23.088 17.6696 23.0894 17.688 23.076 17.7224C23.0618 17.759 23.04 17.7903 23.0191 17.8111L21.6049 16.3969C21.2464 16.7554 21.088 17.2124 21.088 17.68H23.088ZM22.9705 17.8566C22.9771 17.8508 22.9692 17.8592 22.9464 17.868C22.9228 17.8772 22.9008 17.88 22.888 17.88V15.88C22.4163 15.88 21.994 16.0535 21.6535 16.3514L22.9705 17.8566ZM22.888 17.88H36.584V15.88H22.888V17.88ZM36.584 17.88C36.5944 17.88 36.576 17.8814 36.5416 17.868C36.505 17.8538 36.4737 17.832 36.4529 17.8111L37.8671 16.3969C37.5086 16.0384 37.0516 15.88 36.584 15.88V17.88ZM36.4529 17.8111C36.432 17.7903 36.4102 17.759 36.396 17.7224C36.3826 17.688 36.384 17.6696 36.384 17.68H38.384C38.384 17.2124 38.2256 16.7554 37.8671 16.3969L36.4529 17.8111ZM36.384 17.68C36.384 17.6672 36.3868 17.6452 36.396 17.6216C36.4048 17.5988 36.4132 17.5909 36.4074 17.5975L37.9126 18.9145C38.2105 18.574 38.384 18.1517 38.384 17.68H36.384ZM36.4529 17.5489C36.4737 17.528 36.505 17.5062 36.5416 17.492C36.576 17.4786 36.5944 17.48 36.584 17.48V19.48C37.0516 19.48 37.5086 19.3216 37.8671 18.9631L36.4529 17.5489ZM36.584 17.48H30.472V19.48H36.584V17.48ZM29.472 18.48V33.2H31.472V18.48H29.472ZM29.472 33.2C29.472 33.1872 29.4748 33.1652 29.484 33.1416C29.4928 33.1188 29.5012 33.1109 29.4954 33.1175L31.0006 34.4345C31.2985 34.094 31.472 33.6717 31.472 33.2H29.472ZM29.5409 33.0689C29.5617 33.048 29.593 33.0262 29.6296 33.012C29.664 32.9986 29.6824 33 29.672 33V35C30.1396 35 30.5966 34.8416 30.9551 34.4831L29.5409 33.0689ZM54.1488 33.776L53.3962 34.4345L53.4401 34.4847L53.4902 34.5286L54.1488 33.776ZM53.9248 25.68H54.9248V24.68H53.9248V25.68ZM43.2048 25.68V24.68H42.2048V25.68H43.2048ZM42.9808 33.776L43.6879 34.4831L43.7114 34.4596L43.7333 34.4345L42.9808 33.776ZM41.8288 33.776L41.0762 34.4345L41.1201 34.4847L41.1702 34.5286L41.8288 33.776ZM41.8288 17.104L41.1702 16.3514L41.1452 16.3733L41.1216 16.3969L41.8288 17.104ZM42.9808 17.104L42.2736 17.8111L42.2736 17.8111L42.9808 17.104ZM43.2048 24.08H42.2048V25.08H43.2048V24.08ZM53.9248 24.08V25.08H54.9248V24.08H53.9248ZM54.1488 17.104L53.4902 16.3514L53.4652 16.3733L53.4416 16.3969L54.1488 17.104ZM55.3008 17.104L54.5936 17.8111L54.5936 17.8111L55.3008 17.104ZM55.3008 33.776L56.0079 34.4831L56.0314 34.4596L56.0533 34.4345L55.3008 33.776ZM54.7248 33C54.7376 33 54.7595 33.0028 54.7832 33.012C54.806 33.0208 54.8139 33.0292 54.8073 33.0234L53.4902 34.5286C53.8307 34.8265 54.2531 35 54.7248 35V33ZM54.9013 33.1175C54.8955 33.1109 54.9039 33.1188 54.9128 33.1416C54.922 33.1652 54.9248 33.1872 54.9248 33.2H52.9248C52.9248 33.6717 53.0983 34.094 53.3962 34.4345L54.9013 33.1175ZM54.9248 33.2V25.68H52.9248V33.2H54.9248ZM53.9248 24.68H43.2048V26.68H53.9248V24.68ZM42.2048 25.68V33.2H44.2048V25.68H42.2048ZM42.2048 33.2C42.2048 33.1872 42.2075 33.1652 42.2167 33.1416C42.2256 33.1188 42.234 33.1109 42.2282 33.1175L43.7333 34.4345C44.0312 34.094 44.2048 33.6717 44.2048 33.2H42.2048ZM42.2736 33.0689C42.2945 33.048 42.3258 33.0262 42.3623 33.012C42.3968 32.9986 42.4152 33 42.4048 33V35C42.8723 35 43.3293 34.8416 43.6879 34.4831L42.2736 33.0689ZM42.4048 33C42.4176 33 42.4395 33.0028 42.4632 33.012C42.4859 33.0208 42.4939 33.0292 42.4873 33.0234L41.1702 34.5286C41.5107 34.8265 41.9331 35 42.4048 35V33ZM42.5813 33.1175C42.5755 33.1109 42.5839 33.1188 42.5928 33.1416C42.602 33.1652 42.6047 33.1872 42.6047 33.2H40.6047C40.6047 33.6717 40.7783 34.094 41.0762 34.4345L42.5813 33.1175ZM42.6047 33.2V17.68H40.6047V33.2H42.6047ZM42.6047 17.68C42.6047 17.6696 42.6062 17.688 42.5928 17.7224C42.5785 17.759 42.5567 17.7903 42.5359 17.8111L41.1216 16.3969C40.7631 16.7554 40.6047 17.2124 40.6047 17.68H42.6047ZM42.4873 17.8566C42.4939 17.8508 42.486 17.8592 42.4632 17.868C42.4395 17.8772 42.4176 17.88 42.4048 17.88V15.88C41.9331 15.88 41.5107 16.0535 41.1702 16.3514L42.4873 17.8566ZM42.4048 17.88C42.4152 17.88 42.3968 17.8814 42.3623 17.868C42.3258 17.8538 42.2945 17.832 42.2736 17.8111L43.6879 16.3969C43.3293 16.0384 42.8723 15.88 42.4048 15.88V17.88ZM42.2736 17.8111C42.2528 17.7903 42.231 17.759 42.2167 17.7224C42.2033 17.688 42.2048 17.6696 42.2048 17.68H44.2048C44.2048 17.2124 44.0464 16.7554 43.6879 16.3969L42.2736 17.8111ZM42.2048 17.68V24.08H44.2048V17.68H42.2048ZM43.2048 25.08H53.9248V23.08H43.2048V25.08ZM54.9248 24.08V17.68H52.9248V24.08H54.9248ZM54.9248 17.68C54.9248 17.6696 54.9262 17.688 54.9128 17.7224C54.8985 17.759 54.8767 17.7903 54.8559 17.8111L53.4416 16.3969C53.0831 16.7554 52.9248 17.2124 52.9248 17.68H54.9248ZM54.8073 17.8566C54.8139 17.8508 54.806 17.8592 54.7832 17.868C54.7595 17.8772 54.7376 17.88 54.7248 17.88V15.88C54.2531 15.88 53.8307 16.0535 53.4902 16.3514L54.8073 17.8566ZM54.7248 17.88C54.7352 17.88 54.7168 17.8814 54.6823 17.868C54.6458 17.8538 54.6145 17.832 54.5936 17.8111L56.0079 16.3969C55.6493 16.0384 55.1923 15.88 54.7248 15.88V17.88ZM54.5936 17.8111C54.5728 17.7903 54.551 17.759 54.5367 17.7224C54.5233 17.688 54.5247 17.6696 54.5247 17.68H56.5247C56.5247 17.2124 56.3664 16.7554 56.0079 16.3969L54.5936 17.8111ZM54.5247 17.68V33.2H56.5247V17.68H54.5247ZM54.5247 33.2C54.5247 33.1872 54.5275 33.1652 54.5367 33.1416C54.5456 33.1188 54.554 33.1109 54.5482 33.1175L56.0533 34.4345C56.3512 34.094 56.5247 33.6717 56.5247 33.2H54.5247ZM54.5936 33.0689C54.6145 33.048 54.6458 33.0262 54.6823 33.012C54.7168 32.9986 54.7352 33 54.7248 33V35C55.1923 35 55.6493 34.8416 56.0079 34.4831L54.5936 33.0689ZM62.0163 33.776L61.2637 34.4345L61.3076 34.4847L61.3577 34.5286L62.0163 33.776ZM61.9842 17.136L61.2316 16.4775L61.225 16.4852L61.9842 17.136ZM72.0322 17.104L71.3251 17.8111L71.3251 17.8111L72.0322 17.104ZM72.0322 18.256L72.7394 18.9631L72.7629 18.9396L72.7848 18.9145L72.0322 18.256ZM63.3923 18.48V17.48H62.3923V18.48H63.3923ZM63.3923 24.048H62.3923V25.048H63.3923V24.048ZM70.6562 25.424L71.3634 26.1311L71.3869 26.1076L71.4088 26.0825L70.6562 25.424ZM63.3923 25.648V24.648H62.3923V25.648H63.3923ZM63.3923 32.4H62.3923V33.4H63.3923V32.4ZM72.0963 33.776L72.8034 34.4831L72.8269 34.4596L72.8488 34.4345L72.0963 33.776ZM62.5923 33C62.6051 33 62.627 33.0028 62.6507 33.012C62.6735 33.0208 62.6814 33.0292 62.6748 33.0234L61.3577 34.5286C61.6982 34.8265 62.1206 35 62.5923 35V33ZM62.7688 33.1175C62.763 33.1109 62.7714 33.1188 62.7803 33.1416C62.7895 33.1652 62.7923 33.1872 62.7923 33.2H60.7923C60.7923 33.6717 60.9658 34.094 61.2637 34.4345L62.7688 33.1175ZM62.7923 33.2V17.68H60.7923V33.2H62.7923ZM62.7923 17.68C62.7923 17.6744 62.7929 17.6895 62.7832 17.7168C62.7732 17.7453 62.758 17.7699 62.7435 17.7868L61.225 16.4852C60.928 16.8317 60.7923 17.2497 60.7923 17.68H62.7923ZM62.7368 17.7945C62.7418 17.7888 62.722 17.8132 62.6715 17.8384C62.617 17.8656 62.5545 17.88 62.4963 17.88V15.88C61.963 15.88 61.5331 16.133 61.2317 16.4775L62.7368 17.7945ZM62.4963 17.88H71.4562V15.88H62.4963V17.88ZM71.4562 17.88C71.4667 17.88 71.4483 17.8814 71.4138 17.868C71.3773 17.8538 71.346 17.832 71.3251 17.8111L72.7394 16.3969C72.3808 16.0384 71.9238 15.88 71.4562 15.88V17.88ZM71.3251 17.8111C71.3043 17.7903 71.2825 17.759 71.2682 17.7224C71.2548 17.688 71.2562 17.6696 71.2562 17.68H73.2562C73.2562 17.2124 73.0979 16.7554 72.7394 16.3969L71.3251 17.8111ZM71.2562 17.68C71.2562 17.6672 71.259 17.6452 71.2682 17.6216C71.2771 17.5988 71.2855 17.5909 71.2797 17.5975L72.7848 18.9145C73.0827 18.574 73.2562 18.1517 73.2562 17.68H71.2562ZM71.3251 17.5489C71.346 17.528 71.3773 17.5062 71.4138 17.492C71.4483 17.4786 71.4667 17.48 71.4562 17.48V19.48C71.9238 19.48 72.3808 19.3216 72.7394 18.9631L71.3251 17.5489ZM71.4562 17.48H63.3923V19.48H71.4562V17.48ZM62.3923 18.48V24.048H64.3923V18.48H62.3923ZM63.3923 25.048H70.0802V23.048H63.3923V25.048ZM70.0802 25.048C70.0907 25.048 70.0723 25.0494 70.0378 25.036C70.0013 25.0218 69.97 25 69.9491 24.9791L71.3634 23.5649C71.0048 23.2064 70.5478 23.048 70.0802 23.048V25.048ZM69.9491 24.9791C69.9283 24.9583 69.9065 24.927 69.8922 24.8904C69.8788 24.856 69.8802 24.8376 69.8802 24.848H71.8802C71.8802 24.3804 71.7219 23.9234 71.3634 23.5649L69.9491 24.9791ZM69.8802 24.848C69.8802 24.8352 69.883 24.8132 69.8922 24.7896C69.9011 24.7668 69.9095 24.7589 69.9037 24.7655L71.4088 26.0825C71.7067 25.742 71.8802 25.3197 71.8802 24.848H69.8802ZM69.9491 24.7169C69.97 24.696 70.0013 24.6742 70.0378 24.66C70.0723 24.6466 70.0907 24.648 70.0802 24.648V26.648C70.5478 26.648 71.0048 26.4896 71.3634 26.1311L69.9491 24.7169ZM70.0802 24.648H63.3923V26.648H70.0802V24.648ZM62.3923 25.648V32.4H64.3923V25.648H62.3923ZM63.3923 33.4H71.5202V31.4H63.3923V33.4ZM71.5202 33.4C71.5307 33.4 71.5123 33.4014 71.4778 33.388C71.4413 33.3738 71.41 33.352 71.3891 33.3311L72.8034 31.9169C72.4448 31.5584 71.9878 31.4 71.5202 31.4V33.4ZM71.3891 33.3311C71.3683 33.3103 71.3465 33.279 71.3322 33.2424C71.3188 33.208 71.3203 33.1896 71.3203 33.2H73.3203C73.3203 32.7324 73.1619 32.2754 72.8034 31.9169L71.3891 33.3311ZM71.3203 33.2C71.3203 33.1872 71.323 33.1652 71.3322 33.1416C71.3411 33.1188 71.3495 33.1109 71.3437 33.1175L72.8488 34.4345C73.1467 34.094 73.3203 33.6717 73.3203 33.2H71.3203ZM71.3891 33.0689C71.41 33.048 71.4413 33.0262 71.4778 33.012C71.5123 32.9986 71.5307 33 71.5202 33V35C71.9878 35 72.4448 34.8416 72.8034 34.4831L71.3891 33.0689ZM71.5202 33H62.5923V35H71.5202V33ZM95.3087 18.992L94.9241 19.9151L94.9369 19.9204L94.9498 19.9253L95.3087 18.992ZM93.6127 18.48L93.4032 19.4578L93.4101 19.4593L93.6127 18.48ZM88.6527 19.12L89.2929 19.8882L89.3004 19.882L89.3077 19.8757L88.6527 19.12ZM88.5888 22.8L89.2692 22.0672V22.0672L88.5888 22.8ZM92.0768 24.24L91.8484 25.2136L91.8598 25.2162L92.0768 24.24ZM95.6288 25.552L95.0891 26.3939L95.0988 26.4L95.6288 25.552ZM97.4208 27.376L96.5263 27.8232L96.5321 27.8346L97.4208 27.376ZM97.3248 31.856L96.4518 31.3682L96.4469 31.3771L97.3248 31.856ZM95.4048 33.616L95.8606 34.5061L95.8688 34.5018L95.4048 33.616ZM86.0928 32.816L85.5686 33.6677L85.5881 33.6796L85.608 33.6907L86.0928 32.816ZM86.8607 31.408L87.3516 30.5368L87.3301 30.5246L87.308 30.5136L86.8607 31.408ZM95.1807 31.792L95.8055 32.5729L95.8081 32.5708L95.1807 31.792ZM95.2448 27.344L94.5978 28.1065L94.6034 28.1113L94.609 28.1159L95.2448 27.344ZM91.7568 25.84L91.511 26.8093L91.5142 26.8101L91.7568 25.84ZM88.2367 24.528L87.7189 25.3836L87.7288 25.3894L88.2367 24.528ZM86.5407 22.864L85.6402 23.2987L85.6462 23.3112L85.6525 23.3234L86.5407 22.864ZM86.6687 18.864L85.8239 18.3289L85.8191 18.3366L86.6687 18.864ZM88.4287 17.296L87.962 16.4116V16.4116L88.4287 17.296ZM94.0608 16.976L93.7976 17.9408L93.8146 17.9454L93.8317 17.9494L94.0608 16.976ZM96.3327 17.712L95.957 18.6387L95.9693 18.6437L95.9816 18.6483L96.3327 17.712ZM95.8528 19.216L95.4055 20.1104L95.5037 20.1595L95.6102 20.1861L95.8528 19.216ZM95.6934 18.0689C95.1152 17.828 94.4879 17.6399 93.8154 17.5007L93.4101 19.4593C93.9749 19.5761 94.4783 19.7293 94.9241 19.9151L95.6934 18.0689ZM93.8223 17.5022C93.1275 17.3533 92.2596 17.288 91.2448 17.288V19.288C92.1925 19.288 92.9033 19.3507 93.4032 19.4578L93.8223 17.5022ZM91.2448 17.288C89.9863 17.288 88.8665 17.6115 87.9978 18.3643L89.3077 19.8757C89.719 19.5192 90.3272 19.288 91.2448 19.288V17.288ZM88.0126 18.3518C87.1997 19.0292 86.6927 19.8996 86.6927 20.944H88.6927C88.6927 20.6231 88.8258 20.2775 89.2929 19.8882L88.0126 18.3518ZM86.6927 20.944C86.6927 21.9583 87.1501 22.8287 87.9083 23.5328L89.2692 22.0672C88.8327 21.6619 88.6927 21.295 88.6927 20.944H86.6927ZM87.9083 23.5328C88.7134 24.2804 90.1068 24.8051 91.8484 25.2136L92.3051 23.2664C90.5907 22.8643 89.6588 22.429 89.2692 22.0672L87.9083 23.5328ZM91.8598 25.2162C93.3409 25.5453 94.3969 25.9501 95.0891 26.3939L96.1684 24.7101C95.1966 24.0872 93.8846 23.6174 92.2937 23.2638L91.8598 25.2162ZM95.0988 26.4C95.8445 26.8661 96.2896 27.3497 96.5263 27.8232L98.3152 26.9288C97.8693 26.037 97.1196 25.3046 96.1588 24.704L95.0988 26.4ZM96.5321 27.8346C96.7939 28.3418 96.9328 28.9184 96.9328 29.584H98.9328C98.9328 28.6283 98.7303 27.7329 98.3094 26.9174L96.5321 27.8346ZM96.9328 29.584C96.9328 30.1935 96.7784 30.7838 96.4518 31.3682L98.1977 32.3438C98.6818 31.4775 98.9328 30.5532 98.9328 29.584H96.9328ZM96.4469 31.3771C96.1796 31.8672 95.7073 32.3286 94.9407 32.7302L95.8688 34.5018C96.8942 33.9647 97.7019 33.2528 98.2026 32.3349L96.4469 31.3771ZM94.9489 32.726C94.2681 33.0747 93.2706 33.288 91.8848 33.288V35.288C93.4429 35.288 94.7921 35.0533 95.8606 34.506L94.9489 32.726ZM91.8848 33.288C89.9579 33.288 88.1949 32.8377 86.5775 31.9413L85.608 33.6907C87.532 34.757 89.6303 35.288 91.8848 35.288V33.288ZM86.6168 31.9643C86.5898 31.9477 86.6136 31.9558 86.6417 32.0033C86.655 32.0258 86.6647 32.0498 86.6706 32.0724C86.6763 32.0944 86.6768 32.1088 86.6768 32.112H84.6768C84.6768 32.794 85.0276 33.3347 85.5686 33.6677L86.6168 31.9643ZM86.6768 32.112C86.6768 32.1494 86.6687 32.1853 86.6574 32.2127C86.6471 32.2379 86.6398 32.242 86.6533 32.2265L85.1482 30.9095C84.8698 31.2276 84.6768 31.6352 84.6768 32.112H86.6768ZM86.6533 32.2265C86.6401 32.2416 86.6098 32.269 86.5629 32.2898C86.5168 32.3103 86.4829 32.312 86.4768 32.312V30.312C85.9652 30.312 85.4948 30.5133 85.1482 30.9095L86.6533 32.2265ZM86.4768 32.312C86.4565 32.312 86.4391 32.3094 86.4262 32.3061C86.4137 32.303 86.4093 32.3003 86.4135 32.3024L87.308 30.5136C87.0577 30.3884 86.7775 30.312 86.4768 30.312V32.312ZM86.3699 32.2792C88.0428 33.2217 89.888 33.688 91.8848 33.688V31.688C90.2122 31.688 88.7081 31.301 87.3516 30.5368L86.3699 32.2792ZM91.8848 33.688C93.4505 33.688 94.8103 33.369 95.8054 32.5729L94.5561 31.0111C94.0579 31.4097 93.2203 31.688 91.8848 31.688V33.688ZM95.8081 32.5708C96.7705 31.7954 97.3327 30.7891 97.3327 29.584H95.3327C95.3327 30.0855 95.127 30.5512 94.5534 31.0132L95.8081 32.5708ZM97.3327 29.584C97.3327 28.3728 96.8235 27.3487 95.8805 26.5721L94.609 28.1159C95.1166 28.5339 95.3327 29.0032 95.3327 29.584H97.3327ZM95.8917 26.5815C95.0106 25.8339 93.6676 25.2869 91.9993 24.8699L91.5142 26.8101C93.0886 27.2037 94.0709 27.6594 94.5978 28.1065L95.8917 26.5815ZM92.0025 24.8707C90.5306 24.4975 89.4603 24.0886 88.7447 23.6666L87.7288 25.3894C88.6772 25.9487 89.9536 26.4145 91.511 26.8093L92.0025 24.8707ZM88.7546 23.6725C88.0467 23.244 87.6391 22.8108 87.429 22.4046L85.6525 23.3234C86.0824 24.1546 86.8055 24.8306 87.7189 25.3835L88.7546 23.6725ZM87.4413 22.4292C87.2136 21.9577 87.0928 21.4254 87.0928 20.816H85.0928C85.0928 21.6999 85.2705 22.533 85.6402 23.2987L87.4413 22.4292ZM87.0928 20.816C87.0928 20.3322 87.2258 19.8627 87.5184 19.3914L85.8191 18.3366C85.3437 19.1026 85.0928 19.9344 85.0928 20.816H87.0928ZM87.5136 19.3991C87.8126 18.9269 88.2589 18.5163 88.8955 18.1804L87.962 16.4116C87.0626 16.8863 86.3356 17.5211 85.8239 18.3289L87.5136 19.3991ZM88.8955 18.1804C89.4852 17.8691 90.2541 17.688 91.2448 17.688V15.688C90.0167 15.688 88.9083 15.9122 87.962 16.4116L88.8955 18.1804ZM91.2448 17.688C92.3761 17.688 93.2152 17.7819 93.7976 17.9408L94.3239 16.0112C93.4983 15.7861 92.4601 15.688 91.2448 15.688V17.688ZM93.8317 17.9494C94.5005 18.1068 95.2087 18.3354 95.957 18.6387L96.7085 16.7853C95.8781 16.4486 95.0716 16.1865 94.2898 16.0026L93.8317 17.9494ZM95.9816 18.6483C96.0046 18.6569 95.9498 18.6406 95.8958 18.5631C95.8416 18.4851 95.8447 18.4266 95.8447 18.448H97.8447C97.8447 18.1068 97.7626 17.7442 97.5377 17.4209C97.313 17.0981 97.0022 16.8951 96.6839 16.7757L95.9816 18.6483ZM95.8447 18.448C95.8447 18.417 95.8519 18.3797 95.8669 18.3459C95.881 18.3143 95.8929 18.3056 95.8816 18.3169L97.2959 19.7311C97.6272 19.3998 97.8447 18.9622 97.8447 18.448H95.8447ZM95.8816 18.3169C95.8931 18.3055 95.9194 18.284 95.96 18.2673C96.0004 18.2507 96.0323 18.248 96.0448 18.248V20.248C96.5203 20.248 96.9569 20.0701 97.2959 19.7311L95.8816 18.3169ZM96.0448 18.248C96.0744 18.248 96.0965 18.2498 96.1083 18.251C96.1206 18.2522 96.1279 18.2534 96.1292 18.2536C96.1307 18.2539 96.1205 18.2522 96.0953 18.2459L95.6102 20.1861C95.7097 20.211 95.873 20.248 96.0448 20.248V18.248ZM96.3 18.3216C96.1639 18.2535 95.9362 18.1619 95.6677 18.0587L94.9498 19.9253C95.0844 19.9771 95.1912 20.0194 95.272 20.0527C95.3123 20.0693 95.344 20.0827 95.368 20.0933C95.3799 20.0986 95.3891 20.1027 95.3958 20.1058C95.4027 20.109 95.4057 20.1105 95.4055 20.1104L96.3 18.3216ZM114.244 17.712L113.728 18.5682L113.734 18.5721L114.244 17.712ZM117.221 20.848L116.34 21.3229L116.345 21.3313L116.35 21.3396L117.221 20.848ZM117.349 29.968L116.451 29.5265L116.448 29.5324L117.349 29.968ZM114.533 33.136L115.066 33.9815L115.07 33.9791L114.533 33.136ZM105.797 33.136L105.265 33.9833L105.276 33.9896L105.797 33.136ZM102.821 29.968L101.938 30.4379L101.944 30.4488L102.821 29.968ZM102.821 20.848L103.706 21.312V21.312L102.821 20.848ZM105.732 17.712L105.222 16.8519L105.216 16.8558L105.732 17.712ZM106.564 19.152L107.09 20.003L107.094 20L106.564 19.152ZM104.197 21.744L103.309 21.2832L103.306 21.2898L104.197 21.744ZM104.197 29.136L103.306 29.5902L103.309 29.5971L103.313 29.6039L104.197 29.136ZM113.701 31.728L113.162 30.885L113.154 30.8904L113.701 31.728ZM115.973 29.136L116.877 29.5618L116.88 29.5551L115.973 29.136ZM115.844 21.712L114.961 22.1799L114.964 22.1866L114.968 22.1933L115.844 21.712ZM113.477 19.152L112.938 19.9949L112.945 19.999L112.951 20.003L113.477 19.152ZM110.117 17.592C111.458 17.592 112.654 17.9202 113.728 18.5682L114.761 16.8558C113.36 16.0104 111.804 15.592 110.117 15.592V17.592ZM113.734 18.5721C114.83 19.2221 115.697 20.1312 116.34 21.3229L118.101 20.3731C117.293 18.8768 116.176 17.6952 114.755 16.8519L113.734 18.5721ZM116.35 21.3396C117 22.4908 117.34 23.8525 117.34 25.456H119.34C119.34 23.5609 118.935 21.8505 118.091 20.3564L116.35 21.3396ZM117.34 25.456C117.34 26.9841 117.038 28.3345 116.451 29.5265L118.246 30.4095C118.982 28.9135 119.34 27.2559 119.34 25.456H117.34ZM116.448 29.5324C115.889 30.6885 115.076 31.6034 113.995 32.2929L115.07 33.9791C116.464 33.09 117.528 31.8928 118.249 30.4036L116.448 29.5324ZM113.999 32.2905C112.972 32.9389 111.694 33.288 110.117 33.288V35.288C111.995 35.288 113.661 34.8692 115.066 33.9815L113.999 32.2905ZM110.117 33.288C108.66 33.288 107.404 32.9453 106.317 32.2824L105.276 33.9896C106.707 34.8627 108.33 35.288 110.117 35.288V33.288ZM106.328 32.2888C105.216 31.5916 104.342 30.6626 103.697 29.4872L101.944 30.4488C102.75 31.9187 103.86 33.1018 105.265 33.9832L106.328 32.2888ZM103.703 29.4982C103.082 28.3318 102.765 27.0233 102.765 25.552H100.765C100.765 27.3234 101.151 28.9588 101.938 30.4378L103.703 29.4982ZM102.765 25.552C102.765 23.8924 103.09 22.489 103.706 21.312L101.935 20.384C101.143 21.895 100.765 23.6276 100.765 25.552H102.765ZM103.706 21.312C104.33 20.1216 105.176 19.2155 106.249 18.5682L105.216 16.8558C103.814 17.7018 102.719 18.8864 101.935 20.384L103.706 21.312ZM106.243 18.5721C107.327 17.929 108.607 17.592 110.117 17.592V15.592C108.298 15.592 106.656 16.0017 105.222 16.8519L106.243 18.5721ZM110.117 17.192C108.607 17.192 107.235 17.5537 106.035 18.304L107.094 20C107.942 19.4703 108.938 19.192 110.117 19.192V17.192ZM106.039 18.301C104.873 19.0204 103.963 20.0236 103.309 21.2832L105.084 22.2048C105.582 21.2457 106.25 20.5209 107.09 20.003L106.039 18.301ZM103.306 21.2898C102.667 22.5426 102.365 23.9729 102.365 25.552H104.365C104.365 24.2297 104.617 23.1214 105.087 22.1982L103.306 21.2898ZM102.365 25.552C102.365 27.0006 102.675 28.3524 103.306 29.5902L105.087 28.6818C104.609 27.7436 104.365 26.7061 104.365 25.552H102.365ZM103.313 29.6039C103.969 30.8444 104.89 31.8408 106.066 32.576L107.127 30.88C106.255 30.3352 105.576 29.6036 105.08 28.6681L103.313 29.6039ZM106.066 32.576C107.264 33.3247 108.625 33.688 110.117 33.688V31.688C108.963 31.688 107.977 31.4113 107.127 30.88L106.066 32.576ZM110.117 33.688C111.679 33.688 113.073 33.3313 114.247 32.5656L113.154 30.8904C112.366 31.4047 111.37 31.688 110.117 31.688V33.688ZM114.239 32.5709C115.402 31.8281 116.286 30.8187 116.877 29.5618L115.068 28.7102C114.635 29.6293 114.004 30.3479 113.162 30.8851L114.239 32.5709ZM116.88 29.5551C117.459 28.3017 117.741 26.9301 117.741 25.456H115.741C115.741 26.6699 115.51 27.7516 115.065 28.7169L116.88 29.5551ZM117.741 25.456C117.741 23.9027 117.41 22.4851 116.721 21.2307L114.968 22.1933C115.474 23.1149 115.741 24.1933 115.741 25.456H117.741ZM116.728 21.2441C116.073 20.0061 115.163 19.0174 114.002 18.301L112.951 20.003C113.796 20.5239 114.464 21.2419 114.961 22.1799L116.728 21.2441ZM114.015 18.3091C112.844 17.5622 111.536 17.192 110.117 17.192V19.192C111.171 19.192 112.103 19.4618 112.938 19.9949L114.015 18.3091ZM124.953 33.776L125.66 34.4831L125.684 34.4596L125.706 34.4345L124.953 33.776ZM123.801 33.776L123.049 34.4345L123.093 34.4847L123.143 34.5286L123.801 33.776ZM123.801 17.104L123.143 16.3514L123.118 16.3733L123.094 16.3969L123.801 17.104ZM124.953 17.104L124.246 17.8111L124.246 17.8111L124.953 17.104ZM124.177 33.2C124.177 33.1872 124.18 33.1652 124.189 33.1416C124.198 33.1188 124.206 33.1109 124.201 33.1175L125.706 34.4345C126.004 34.094 126.177 33.6717 126.177 33.2H124.177ZM124.246 33.0689C124.267 33.048 124.298 33.0262 124.335 33.012C124.369 32.9986 124.388 33 124.377 33V35C124.845 35 125.302 34.8416 125.66 34.4831L124.246 33.0689ZM124.377 33C124.39 33 124.412 33.0028 124.436 33.012C124.458 33.0208 124.466 33.0292 124.46 33.0234L123.143 34.5286C123.483 34.8265 123.906 35 124.377 35V33ZM124.554 33.1175C124.548 33.1109 124.556 33.1188 124.565 33.1416C124.574 33.1652 124.577 33.1872 124.577 33.2H122.577C122.577 33.6717 122.751 34.094 123.049 34.4345L124.554 33.1175ZM124.577 33.2V17.68H122.577V33.2H124.577ZM124.577 17.68C124.577 17.6696 124.579 17.688 124.565 17.7224C124.551 17.759 124.529 17.7903 124.508 17.8111L123.094 16.3969C122.736 16.7554 122.577 17.2124 122.577 17.68H124.577ZM124.46 17.8566C124.466 17.8508 124.458 17.8592 124.436 17.868C124.412 17.8772 124.39 17.88 124.377 17.88V15.88C123.906 15.88 123.483 16.0535 123.143 16.3514L124.46 17.8566ZM124.377 17.88C124.388 17.88 124.369 17.8814 124.335 17.868C124.298 17.8538 124.267 17.832 124.246 17.8111L125.66 16.3969C125.302 16.0384 124.845 15.88 124.377 15.88V17.88ZM124.246 17.8111C124.225 17.7903 124.203 17.759 124.189 17.7224C124.176 17.688 124.177 17.6696 124.177 17.68H126.177C126.177 17.2124 126.019 16.7554 125.66 16.3969L124.246 17.8111ZM124.177 17.68V33.2H126.177V17.68H124.177ZM131.829 33.776L131.076 34.4345L131.12 34.4847L131.17 34.5286L131.829 33.776ZM131.829 17.104L131.17 16.3514L131.145 16.3733L131.122 16.3969L131.829 17.104ZM132.981 17.104L132.274 17.8111V17.8111L132.981 17.104ZM133.205 32.4H132.205V33.4H133.205V32.4ZM141.653 33.776L142.36 34.4831L142.383 34.4596L142.405 34.4345L141.653 33.776ZM132.405 33C132.418 33 132.44 33.0028 132.463 33.012C132.486 33.0208 132.494 33.0292 132.487 33.0234L131.17 34.5286C131.511 34.8265 131.933 35 132.405 35V33ZM132.581 33.1175C132.576 33.1109 132.584 33.1188 132.593 33.1416C132.602 33.1652 132.605 33.1872 132.605 33.2H130.605C130.605 33.6717 130.778 34.094 131.076 34.4345L132.581 33.1175ZM132.605 33.2V17.68H130.605V33.2H132.605ZM132.605 17.68C132.605 17.6696 132.606 17.688 132.593 17.7224C132.579 17.759 132.557 17.7903 132.536 17.8111L131.122 16.3969C130.763 16.7554 130.605 17.2124 130.605 17.68H132.605ZM132.487 17.8566C132.494 17.8508 132.486 17.8592 132.463 17.868C132.44 17.8772 132.418 17.88 132.405 17.88V15.88C131.933 15.88 131.511 16.0535 131.17 16.3514L132.487 17.8566ZM132.405 17.88C132.415 17.88 132.397 17.8814 132.362 17.868C132.326 17.8538 132.294 17.832 132.274 17.8111L133.688 16.3969C133.329 16.0384 132.872 15.88 132.405 15.88V17.88ZM132.274 17.8111C132.253 17.7903 132.231 17.759 132.217 17.7224C132.203 17.688 132.205 17.6696 132.205 17.68H134.205C134.205 17.2124 134.046 16.7554 133.688 16.3969L132.274 17.8111ZM132.205 17.68V32.4H134.205V17.68H132.205ZM133.205 33.4H141.077V31.4H133.205V33.4ZM141.077 33.4C141.087 33.4 141.069 33.4014 141.034 33.388C140.998 33.3738 140.966 33.352 140.946 33.3311L142.36 31.9169C142.001 31.5584 141.544 31.4 141.077 31.4V33.4ZM140.946 33.3311C140.925 33.3103 140.903 33.279 140.889 33.2424C140.875 33.208 140.877 33.1896 140.877 33.2H142.877C142.877 32.7324 142.718 32.2754 142.36 31.9169L140.946 33.3311ZM140.877 33.2C140.877 33.1872 140.88 33.1652 140.889 33.1416C140.898 33.1188 140.906 33.1109 140.9 33.1175L142.405 34.4345C142.703 34.094 142.877 33.6717 142.877 33.2H140.877ZM140.946 33.0689C140.966 33.048 140.998 33.0262 141.034 33.012C141.069 32.9986 141.087 33 141.077 33V35C141.544 35 142.001 34.8416 142.36 34.4831L140.946 33.0689ZM141.077 33H132.405V35H141.077V33ZM164.215 18.992L163.83 19.9151L163.843 19.9204L163.856 19.9253L164.215 18.992ZM162.519 18.48L162.309 19.4578L162.316 19.4593L162.519 18.48ZM157.559 19.12L158.199 19.8882L158.207 19.882L158.214 19.8757L157.559 19.12ZM157.495 22.8L158.175 22.0672V22.0672L157.495 22.8ZM160.983 24.24L160.755 25.2136L160.766 25.2162L160.983 24.24ZM164.535 25.552L163.995 26.3939L164.005 26.4L164.535 25.552ZM166.327 27.376L165.432 27.8232L165.438 27.8346L166.327 27.376ZM166.231 31.856L165.358 31.3682L165.353 31.3771L166.231 31.856ZM164.311 33.616L164.767 34.5061L164.775 34.5018L164.311 33.616ZM154.999 32.816L154.475 33.6677L154.494 33.6796L154.514 33.6907L154.999 32.816ZM155.767 31.408L156.258 30.5368L156.236 30.5246L156.214 30.5136L155.767 31.408ZM164.087 31.792L164.712 32.5729L164.714 32.5708L164.087 31.792ZM164.151 27.344L163.504 28.1065L163.51 28.1113L163.515 28.1159L164.151 27.344ZM160.663 25.84L160.417 26.8093L160.42 26.8101L160.663 25.84ZM157.143 24.528L156.625 25.3836L156.635 25.3894L157.143 24.528ZM155.447 22.864L154.546 23.2987L154.552 23.3112L154.559 23.3234L155.447 22.864ZM155.575 18.864L154.73 18.3289L154.725 18.3366L155.575 18.864ZM157.335 17.296L156.868 16.4116V16.4116L157.335 17.296ZM162.967 16.976L162.704 17.9408L162.721 17.9454L162.738 17.9494L162.967 16.976ZM165.239 17.712L164.863 18.6387L164.876 18.6437L164.888 18.6483L165.239 17.712ZM164.759 19.216L164.312 20.1104L164.41 20.1595L164.516 20.1861L164.759 19.216ZM164.6 18.0689C164.021 17.828 163.394 17.6399 162.722 17.5007L162.316 19.4593C162.881 19.5761 163.385 19.7293 163.83 19.9151L164.6 18.0689ZM162.729 17.5022C162.034 17.3533 161.166 17.288 160.151 17.288V19.288C161.099 19.288 161.81 19.3507 162.309 19.4578L162.729 17.5022ZM160.151 17.288C158.893 17.288 157.773 17.6115 156.904 18.3643L158.214 19.8757C158.625 19.5192 159.233 19.288 160.151 19.288V17.288ZM156.919 18.3518C156.106 19.0292 155.599 19.8996 155.599 20.944H157.599C157.599 20.6231 157.732 20.2775 158.199 19.8882L156.919 18.3518ZM155.599 20.944C155.599 21.9583 156.056 22.8287 156.815 23.5328L158.175 22.0672C157.739 21.6619 157.599 21.295 157.599 20.944H155.599ZM156.815 23.5328C157.62 24.2804 159.013 24.8051 160.755 25.2136L161.211 23.2664C159.497 22.8643 158.565 22.429 158.175 22.0672L156.815 23.5328ZM160.766 25.2162C162.247 25.5453 163.303 25.9501 163.995 26.3939L165.075 24.7101C164.103 24.0872 162.791 23.6174 161.2 23.2638L160.766 25.2162ZM164.005 26.4C164.751 26.8661 165.196 27.3497 165.433 27.8232L167.221 26.9288C166.776 26.037 166.026 25.3046 165.065 24.704L164.005 26.4ZM165.438 27.8346C165.7 28.3418 165.839 28.9184 165.839 29.584H167.839C167.839 28.6283 167.637 27.7329 167.216 26.9174L165.438 27.8346ZM165.839 29.584C165.839 30.1935 165.685 30.7838 165.358 31.3682L167.104 32.3438C167.588 31.4775 167.839 30.5532 167.839 29.584H165.839ZM165.353 31.3771C165.086 31.8672 164.614 32.3286 163.847 32.7302L164.775 34.5018C165.8 33.9647 166.608 33.2528 167.109 32.3349L165.353 31.3771ZM163.855 32.726C163.174 33.0747 162.177 33.288 160.791 33.288V35.288C162.349 35.288 163.698 35.0533 164.767 34.506L163.855 32.726ZM160.791 33.288C158.864 33.288 157.101 32.8377 155.484 31.9413L154.514 33.6907C156.438 34.757 158.537 35.288 160.791 35.288V33.288ZM155.523 31.9643C155.496 31.9477 155.52 31.9558 155.548 32.0033C155.561 32.0258 155.571 32.0498 155.577 32.0724C155.583 32.0944 155.583 32.1088 155.583 32.112H153.583C153.583 32.794 153.934 33.3347 154.475 33.6677L155.523 31.9643ZM155.583 32.112C155.583 32.1494 155.575 32.1853 155.564 32.2127C155.553 32.2379 155.546 32.242 155.56 32.2265L154.054 30.9095C153.776 31.2276 153.583 31.6352 153.583 32.112H155.583ZM155.56 32.2265C155.546 32.2416 155.516 32.269 155.469 32.2898C155.423 32.3103 155.389 32.312 155.383 32.312V30.312C154.871 30.312 154.401 30.5133 154.054 30.9095L155.56 32.2265ZM155.383 32.312C155.363 32.312 155.345 32.3094 155.332 32.3061C155.32 32.303 155.316 32.3003 155.32 32.3024L156.214 30.5136C155.964 30.3884 155.684 30.312 155.383 30.312V32.312ZM155.276 32.2792C156.949 33.2217 158.794 33.688 160.791 33.688V31.688C159.118 31.688 157.614 31.301 156.258 30.5368L155.276 32.2792ZM160.791 33.688C162.357 33.688 163.717 33.369 164.712 32.5729L163.462 31.0111C162.964 31.4097 162.127 31.688 160.791 31.688V33.688ZM164.714 32.5708C165.677 31.7954 166.239 30.7891 166.239 29.584H164.239C164.239 30.0855 164.033 30.5512 163.46 31.0132L164.714 32.5708ZM166.239 29.584C166.239 28.3728 165.73 27.3487 164.787 26.5721L163.515 28.1159C164.023 28.5339 164.239 29.0032 164.239 29.584H166.239ZM164.798 26.5815C163.917 25.8339 162.574 25.2869 160.906 24.8699L160.42 26.8101C161.995 27.2037 162.977 27.6594 163.504 28.1065L164.798 26.5815ZM160.909 24.8707C159.437 24.4975 158.367 24.0886 157.651 23.6666L156.635 25.3894C157.583 25.9487 158.86 26.4145 160.417 26.8093L160.909 24.8707ZM157.661 23.6725C156.953 23.244 156.545 22.8108 156.335 22.4046L154.559 23.3234C154.989 24.1546 155.712 24.8306 156.625 25.3835L157.661 23.6725ZM156.348 22.4292C156.12 21.9577 155.999 21.4254 155.999 20.816H153.999C153.999 21.6999 154.177 22.533 154.546 23.2987L156.348 22.4292ZM155.999 20.816C155.999 20.3322 156.132 19.8627 156.425 19.3914L154.725 18.3366C154.25 19.1026 153.999 19.9344 153.999 20.816H155.999ZM156.42 19.3991C156.719 18.9269 157.165 18.5163 157.802 18.1804L156.868 16.4116C155.969 16.8863 155.242 17.5211 154.73 18.3289L156.42 19.3991ZM157.802 18.1804C158.391 17.8691 159.16 17.688 160.151 17.688V15.688C158.923 15.688 157.815 15.9122 156.868 16.4116L157.802 18.1804ZM160.151 17.688C161.282 17.688 162.121 17.7819 162.704 17.9408L163.23 16.0112C162.405 15.7861 161.366 15.688 160.151 15.688V17.688ZM162.738 17.9494C163.407 18.1068 164.115 18.3354 164.863 18.6387L165.615 16.7853C164.784 16.4486 163.978 16.1865 163.196 16.0026L162.738 17.9494ZM164.888 18.6483C164.911 18.6569 164.856 18.6406 164.802 18.5631C164.748 18.4851 164.751 18.4266 164.751 18.448H166.751C166.751 18.1068 166.669 17.7442 166.444 17.4209C166.219 17.0981 165.908 16.8951 165.59 16.7757L164.888 18.6483ZM164.751 18.448C164.751 18.417 164.758 18.3797 164.773 18.3459C164.787 18.3143 164.799 18.3056 164.788 18.3169L166.202 19.7311C166.533 19.3998 166.751 18.9622 166.751 18.448H164.751ZM164.788 18.3169C164.799 18.3055 164.826 18.284 164.866 18.2673C164.907 18.2507 164.939 18.248 164.951 18.248V20.248C165.427 20.248 165.863 20.0701 166.202 19.7311L164.788 18.3169ZM164.951 18.248C164.981 18.248 165.003 18.2498 165.015 18.251C165.027 18.2522 165.034 18.2534 165.035 18.2536C165.037 18.2539 165.027 18.2522 165.002 18.2459L164.516 20.1861C164.616 20.211 164.779 20.248 164.951 20.248V18.248ZM165.206 18.3216C165.07 18.2535 164.842 18.1619 164.574 18.0587L163.856 19.9253C163.991 19.9771 164.097 20.0194 164.178 20.0527C164.219 20.0693 164.25 20.0827 164.274 20.0933C164.286 20.0986 164.295 20.1027 164.302 20.1058C164.309 20.109 164.312 20.1105 164.312 20.1104L165.206 18.3216ZM183.151 17.712L182.634 18.5682L182.641 18.5721L183.151 17.712ZM186.127 20.848L185.247 21.3229L185.251 21.3313L185.256 21.3396L186.127 20.848ZM186.255 29.968L185.357 29.5265L185.355 29.5324L186.255 29.968ZM183.439 33.136L183.973 33.9815L183.977 33.9791L183.439 33.136ZM174.703 33.136L174.171 33.9833L174.182 33.9896L174.703 33.136ZM171.727 29.968L170.844 30.4379L170.85 30.4488L171.727 29.968ZM171.727 20.848L172.613 21.312V21.312L171.727 20.848ZM174.639 17.712L174.129 16.8519L174.122 16.8558L174.639 17.712ZM175.471 19.152L175.996 20.003L176.001 20L175.471 19.152ZM173.103 21.744L172.215 21.2832L172.212 21.2898L173.103 21.744ZM173.103 29.136L172.212 29.5902L172.215 29.5971L172.219 29.6039L173.103 29.136ZM182.607 31.728L182.069 30.885L182.06 30.8904L182.607 31.728ZM184.879 29.136L185.784 29.5618L185.787 29.5551L184.879 29.136ZM184.751 21.712L183.867 22.1799L183.871 22.1866L183.874 22.1933L184.751 21.712ZM182.383 19.152L181.845 19.9949L181.851 19.999L181.858 20.003L182.383 19.152ZM179.023 17.592C180.364 17.592 181.56 17.9202 182.634 18.5682L183.667 16.8558C182.267 16.0104 180.71 15.592 179.023 15.592V17.592ZM182.641 18.5721C183.736 19.2221 184.604 20.1312 185.247 21.3229L187.007 20.3731C186.199 18.8768 185.082 17.6952 183.661 16.8519L182.641 18.5721ZM185.256 21.3396C185.906 22.4908 186.247 23.8525 186.247 25.456H188.247C188.247 23.5609 187.841 21.8505 186.998 20.3564L185.256 21.3396ZM186.247 25.456C186.247 26.9841 185.944 28.3345 185.357 29.5265L187.152 30.4095C187.888 28.9135 188.247 27.2559 188.247 25.456H186.247ZM185.355 29.5324C184.795 30.6885 183.982 31.6034 182.901 32.2929L183.977 33.9791C185.37 33.09 186.434 31.8928 187.155 30.4036L185.355 29.5324ZM182.905 32.2905C181.878 32.9389 180.6 33.288 179.023 33.288V35.288C180.901 35.288 182.567 34.8692 183.973 33.9815L182.905 32.2905ZM179.023 33.288C177.566 33.288 176.31 32.9453 175.224 32.2824L174.182 33.9896C175.613 34.8627 177.237 35.288 179.023 35.288V33.288ZM175.234 32.2888C174.122 31.5916 173.248 30.6626 172.604 29.4872L170.85 30.4488C171.656 31.9187 172.766 33.1018 174.171 33.9832L175.234 32.2888ZM172.609 29.4982C171.989 28.3318 171.671 27.0233 171.671 25.552H169.671C169.671 27.3234 170.057 28.9588 170.844 30.4378L172.609 29.4982ZM171.671 25.552C171.671 23.8924 171.996 22.489 172.613 21.312L170.841 20.384C170.049 21.895 169.671 23.6276 169.671 25.552H171.671ZM172.613 21.312C173.236 20.1216 174.083 19.2155 175.155 18.5682L174.122 16.8558C172.72 17.7018 171.625 18.8864 170.841 20.384L172.613 21.312ZM175.149 18.5721C176.233 17.929 177.513 17.592 179.023 17.592V15.592C177.204 15.592 175.562 16.0017 174.129 16.8519L175.149 18.5721ZM179.023 17.192C177.513 17.192 176.141 17.5537 174.941 18.304L176.001 20C176.848 19.4703 177.844 19.192 179.023 19.192V17.192ZM174.946 18.301C173.78 19.0204 172.869 20.0236 172.215 21.2832L173.99 22.2048C174.488 21.2457 175.157 20.5209 175.996 20.003L174.946 18.301ZM172.212 21.2898C171.573 22.5426 171.271 23.9729 171.271 25.552H173.271C173.271 24.2297 173.523 23.1214 173.994 22.1982L172.212 21.2898ZM171.271 25.552C171.271 27.0006 171.581 28.3524 172.212 29.5902L173.994 28.6818C173.515 27.7436 173.271 26.7061 173.271 25.552H171.271ZM172.219 29.6039C172.876 30.8444 173.796 31.8408 174.973 32.576L176.033 30.88C175.161 30.3352 174.482 29.6036 173.987 28.6681L172.219 29.6039ZM174.973 32.576C176.171 33.3247 177.531 33.688 179.023 33.688V31.688C177.869 31.688 176.883 31.4113 176.033 30.88L174.973 32.576ZM179.023 33.688C180.585 33.688 181.979 33.3313 183.153 32.5656L182.06 30.8904C181.272 31.4047 180.276 31.688 179.023 31.688V33.688ZM183.145 32.5709C184.308 31.8281 185.192 30.8187 185.784 29.5618L183.974 28.7102C183.541 29.6293 182.91 30.3479 182.069 30.8851L183.145 32.5709ZM185.787 29.5551C186.365 28.3017 186.647 26.9301 186.647 25.456H184.647C184.647 26.6699 184.416 27.7516 183.971 28.7169L185.787 29.5551ZM186.647 25.456C186.647 23.9027 186.316 22.4851 185.627 21.2307L183.874 22.1933C184.38 23.1149 184.647 24.1933 184.647 25.456H186.647ZM185.635 21.2441C184.979 20.0061 184.069 19.0174 182.908 18.301L181.858 20.003C182.702 20.5239 183.37 21.2419 183.867 22.1799L185.635 21.2441ZM182.921 18.3091C181.751 17.5622 180.443 17.192 179.023 17.192V19.192C180.077 19.192 181.009 19.4618 181.845 19.9949L182.921 18.3091ZM204.74 33.68L205.559 33.1065L205.551 33.096L205.544 33.0856L204.74 33.68ZM202.212 30.384L201.42 30.9951L201.427 31.0036L202.212 30.384ZM199.299 26.672L198.512 27.2887L198.517 27.2951L199.299 26.672ZM196.387 22.96L195.594 23.5691L195.601 23.5778L196.387 22.96ZM193.923 19.792L194.708 19.1718L192.923 16.915V19.792H193.923ZM193.699 33.776L194.407 34.4831L194.43 34.4596L194.452 34.4345L193.699 33.776ZM192.548 33.776L191.795 34.4345L191.839 34.4847L191.889 34.5286L192.548 33.776ZM192.548 17.104L191.889 16.3514L191.864 16.3733L191.84 16.3969L192.548 17.104ZM193.956 17.2L193.136 17.7735L193.147 17.7889L193.158 17.8039L193.956 17.2ZM196.036 19.92L195.243 20.5297L195.249 20.5371L196.036 19.92ZM198.82 23.504L198.027 24.1143L198.033 24.1216L198.039 24.1287L198.82 23.504ZM201.891 27.408L201.101 28.0202L201.106 28.0273L201.112 28.0343L201.891 27.408ZM204.771 31.088L203.975 31.6927L205.771 34.0588V31.088H204.771ZM204.995 17.104L204.337 16.3514L204.312 16.3733L204.288 16.3969L204.995 17.104ZM206.148 33.776L206.855 34.4831L206.878 34.4596L206.9 34.4345L206.148 33.776ZM205.544 33.0856C204.811 32.0939 203.961 30.9866 202.996 29.7644L201.427 31.0036C202.382 32.2134 203.218 33.3035 203.935 34.2744L205.544 33.0856ZM203.003 29.7729C202.061 28.5527 201.087 27.3114 200.082 26.0489L198.517 27.2951C199.517 28.5499 200.484 29.7833 201.42 30.9951L203.003 29.7729ZM200.087 26.0553C199.084 24.775 198.113 23.5373 197.174 22.3422L195.601 23.5778C196.54 24.7721 197.51 26.009 198.512 27.2887L200.087 26.0553ZM197.181 22.351C196.261 21.1536 195.437 20.0937 194.708 19.1718L193.139 20.4122C193.861 21.325 194.679 22.3771 195.594 23.569L197.181 22.351ZM192.923 19.792V33.2H194.923V19.792H192.923ZM192.923 33.2C192.923 33.1872 192.926 33.1652 192.936 33.1416C192.944 33.1188 192.953 33.1109 192.947 33.1175L194.452 34.4345C194.75 34.094 194.923 33.6717 194.923 33.2H192.923ZM192.992 33.0689C193.013 33.048 193.045 33.0262 193.081 33.012C193.116 32.9986 193.134 33 193.124 33V35C193.591 35 194.048 34.8416 194.407 34.4831L192.992 33.0689ZM193.124 33C193.136 33 193.158 33.0028 193.182 33.012C193.205 33.0208 193.213 33.0292 193.206 33.0234L191.889 34.5286C192.229 34.8265 192.652 35 193.124 35V33ZM193.3 33.1175C193.294 33.1109 193.303 33.1188 193.312 33.1416C193.321 33.1652 193.324 33.1872 193.324 33.2H191.324C191.324 33.6717 191.497 34.094 191.795 34.4345L193.3 33.1175ZM193.324 33.2V17.68H191.324V33.2H193.324ZM193.324 17.68C193.324 17.6696 193.325 17.688 193.312 17.7224C193.297 17.759 193.275 17.7903 193.255 17.8111L191.84 16.3969C191.482 16.7554 191.324 17.2124 191.324 17.68H193.324ZM193.206 17.8566C193.221 17.843 193.217 17.8503 193.192 17.8607C193.165 17.872 193.129 17.88 193.092 17.88V15.88C192.615 15.88 192.207 16.0731 191.889 16.3514L193.206 17.8566ZM193.092 17.88C193.157 17.88 193.205 17.8842 193.238 17.889C193.271 17.8939 193.283 17.8988 193.28 17.8977C193.277 17.8965 193.256 17.8884 193.227 17.867C193.197 17.8449 193.164 17.8136 193.136 17.7735L194.775 16.6265C194.344 16.0105 193.634 15.88 193.092 15.88V17.88ZM193.158 17.8039C193.694 18.5106 194.389 19.4194 195.243 20.5297L196.828 19.3103C195.976 18.2019 195.284 17.2974 194.753 16.5961L193.158 17.8039ZM195.249 20.5371C196.1 21.6225 197.026 22.8149 198.027 24.1143L199.612 22.8937C198.608 21.5905 197.678 20.3935 196.822 19.3029L195.249 20.5371ZM198.039 24.1287C199.059 25.4045 200.08 26.7016 201.101 28.0202L202.682 26.7958C201.655 25.469 200.628 24.1635 199.6 22.8793L198.039 24.1287ZM201.112 28.0343C202.152 29.3295 203.107 30.549 203.975 31.6927L205.568 30.4833C204.687 29.323 203.721 28.0891 202.671 26.7817L201.112 28.0343ZM205.771 31.088V17.68H203.771V31.088H205.771ZM205.771 17.68C205.771 17.6696 205.773 17.688 205.76 17.7224C205.745 17.759 205.723 17.7903 205.703 17.8111L204.288 16.3969C203.93 16.7554 203.771 17.2124 203.771 17.68H205.771ZM205.654 17.8566C205.661 17.8508 205.653 17.8592 205.63 17.868C205.606 17.8772 205.584 17.88 205.572 17.88V15.88C205.1 15.88 204.677 16.0535 204.337 16.3514L205.654 17.8566ZM205.572 17.88C205.582 17.88 205.564 17.8814 205.529 17.868C205.493 17.8538 205.461 17.832 205.44 17.8111L206.855 16.3969C206.496 16.0384 206.039 15.88 205.572 15.88V17.88ZM205.44 17.8111C205.42 17.7903 205.398 17.759 205.383 17.7224C205.37 17.688 205.372 17.6696 205.372 17.68H207.372C207.372 17.2124 207.213 16.7554 206.855 16.3969L205.44 17.8111ZM205.372 17.68V33.2H207.372V17.68H205.372ZM205.372 33.2C205.372 33.1872 205.374 33.1652 205.383 33.1416C205.392 33.1188 205.401 33.1109 205.395 33.1175L206.9 34.4345C207.198 34.094 207.372 33.6717 207.372 33.2H205.372ZM205.44 33.0689C205.452 33.0575 205.478 33.036 205.519 33.0193C205.559 33.0027 205.591 33 205.604 33V35C206.079 35 206.516 34.8221 206.855 34.4831L205.44 33.0689ZM205.604 33C205.538 33 205.49 32.9958 205.457 32.991C205.424 32.9861 205.412 32.9812 205.415 32.9823C205.418 32.9835 205.439 32.9916 205.468 33.013C205.498 33.0351 205.531 33.0664 205.559 33.1065L203.92 34.2535C204.352 34.8695 205.061 35 205.604 35V33Z" fill="#363636"/>
</svg>
