<svg width="20" height="20" viewBox="0 0 20 20" fill="none" xmlns="http://www.w3.org/2000/svg">
<path d="M8.92188 19H11.7344C12.1227 19 12.4375 18.6852 12.4375 18.2969C12.4375 17.9085 12.1227 17.5938 11.7344 17.5938H8.92188C8.53354 17.5938 8.21875 17.9085 8.21875 18.2969C8.21875 18.6852 8.53354 19 8.92188 19Z" fill="#68748A"/>
<path d="M10.3281 1C9.93979 1 9.625 1.31479 9.625 1.70312V2.4567C7.24299 2.79891 5.40625 4.85291 5.40625 7.32812V11.6508C5.40625 11.8986 5.29463 12.124 5.12855 12.2118C4.43242 12.5793 4 13.2945 4 14.0781C4 15.2412 4.94627 16.1875 6.10938 16.1875H14.5469C15.71 16.1875 16.6562 15.2412 16.6562 14.0781C16.6562 13.2945 16.2238 12.5793 15.5277 12.2118C15.3616 12.124 15.25 11.8986 15.25 11.6508V7.32812C15.25 4.85291 13.4133 2.79891 11.0312 2.4567V1.70312C11.0312 1.31479 10.7165 1 10.3281 1V1ZM13.8438 7.32812V11.6508C13.8438 12.4292 14.2374 13.1206 14.8711 13.4553C15.1048 13.5787 15.25 13.8173 15.25 14.0781C15.25 14.4658 14.9346 14.7812 14.5469 14.7812H6.10938C5.72167 14.7812 5.40625 14.4658 5.40625 14.0781C5.40625 13.8173 5.55145 13.5787 5.78516 13.4553C6.41886 13.1206 6.8125 12.4292 6.8125 11.6508V7.32812C6.8125 5.38961 8.38961 3.8125 10.3281 3.8125C12.2666 3.8125 13.8438 5.38961 13.8438 7.32812Z" fill="#68748A"/>
</svg>
