<svg width="90" height="121" viewBox="0 0 90 121" fill="none" xmlns="http://www.w3.org/2000/svg">
<path d="M51.8837 1.48439C47.4096 3.78596 44.641 6.71452 43.8825 11.875C43.0775 17.239 44.7462 22.3543 47.9293 26.6339C51.5835 31.5117 56.5001 35.2663 60.8909 39.3965C63.8177 42.1599 68.1737 45.8687 67.9826 50.3344C67.7742 55.2396 61.7202 56.1443 58.2135 57.8232C52.7453 60.4169 47.474 64.6762 46.4879 70.9877C45.5618 76.7627 48.4941 80.9946 53.6528 83.2007C57.1716 84.6984 61.3063 85.4553 64.2726 88.0117C65.6594 89.1751 66.5884 90.793 66.8939 92.5773C67.1995 94.3615 66.8619 96.1963 65.9412 97.7549C63.6083 101.686 58.7517 103.763 54.5895 105.072C53.3341 105.472 52.6578 103.539 53.9184 103.137C57.8904 101.871 63.9572 99.5678 64.9037 94.8987C65.9326 89.8085 60.2494 87.7961 56.5189 86.4479C52.7883 85.0998 48.8059 83.7686 46.4584 80.4119C43.9505 76.8295 43.768 72.013 45.1667 67.972C46.7162 63.5214 50.2509 60.1162 54.1955 57.7406C56.4441 56.4307 58.804 55.3221 61.2478 54.4276C62.6224 53.8981 64.299 53.4455 65.2631 52.2559C66.8221 50.3327 65.7322 47.9164 64.5366 46.1752C58.4303 37.2506 47.034 32.4979 43.2134 21.8198C41.7039 17.5895 41.6567 12.9751 43.0794 8.7148C44.375 4.98489 47.4319 0.995635 51.7259 1.02946C51.9552 1.03194 52.1379 1.3728 51.8891 1.50008L51.8837 1.48439Z" fill="white"/>
<path d="M51.6847 1.46596C45.7391 8.73005 45.3853 19.415 50.4269 27.2795C53.2705 31.712 57.4665 33.6252 61.8726 36.1274C65.3571 38.1174 68.5484 40.9003 68.8399 45.1694C69.5989 56.2592 56.6157 59.9537 49.9648 65.7752C45.7284 69.4882 42.4723 77.4129 48.5557 81.1026C52.5759 83.5394 57.6954 82.7949 61.7874 85.0838C64.8379 86.785 68.1085 90.3372 66.9587 94.1161C66.3425 96.1399 64.638 97.3228 62.8358 98.2408C59.9166 99.7219 56.6924 101.455 53.5254 102.272C52.5797 102.518 51.8349 101.283 52.7202 100.677C56.1015 98.3327 67.4925 96.2801 64.4062 90.4555C61.9432 85.8031 56.2855 85.756 51.8399 84.6265C48.0809 83.6691 44.5213 81.6992 43.4089 77.7149C42.2965 73.7306 44.0679 69.244 46.6491 66.1637C50.1587 61.9764 55.4737 59.8869 59.8455 56.8007C64.0438 53.8391 68.6914 48.2378 66.2101 42.7892C64.0703 38.0892 58.0683 36.779 54.1886 33.9536C51.121 31.6632 48.7367 28.5789 47.2928 25.0332C43.9904 17.1161 45 7.2407 51.0781 0.949946C51.1501 0.88675 51.2425 0.85163 51.3383 0.851018C51.4342 0.850406 51.527 0.884346 51.5998 0.946618C51.6727 1.00889 51.7206 1.09532 51.7349 1.19008C51.7492 1.28483 51.7289 1.38156 51.6776 1.46255L51.6847 1.46596Z" fill="white"/>
<path d="M62.1862 98.3655C58.5921 100.485 54.1588 102.971 50.004 103.592C49.8638 103.598 49.7254 103.559 49.6093 103.48C49.4933 103.401 49.4058 103.286 49.3598 103.154C49.3138 103.021 49.3117 102.877 49.3539 102.743C49.3962 102.61 49.4804 102.493 49.5941 102.411C51.3744 101.412 53.4036 100.878 55.3023 100.12C57.4518 99.2577 59.5689 98.3184 61.695 97.4052C61.8164 97.3758 61.9441 97.3883 62.0575 97.4406C62.1708 97.4929 62.2632 97.5821 62.3195 97.6935C62.3758 97.805 62.3928 97.9322 62.3676 98.0546C62.3425 98.1769 62.2767 98.2871 62.181 98.3673L62.1862 98.3655Z" fill="white"/>
<path d="M62.9138 100.867C56.847 103.17 50.762 105.708 44.5301 107.536C44.3501 107.581 44.1597 107.558 43.9963 107.469C43.833 107.381 43.7086 107.235 43.6478 107.06C43.5869 106.884 43.5941 106.693 43.6678 106.522C43.7415 106.352 43.8764 106.215 44.0459 106.14C50.071 103.716 56.4208 101.941 62.611 99.9936C62.7261 99.9537 62.8523 99.9611 62.962 100.014C63.0716 100.067 63.1556 100.162 63.1955 100.277C63.2354 100.392 63.228 100.518 63.1748 100.628C63.1217 100.738 63.0271 100.822 62.912 100.862L62.9138 100.867Z" fill="white"/>
<path d="M60.0283 101.551C54.2058 103.512 48.404 105.583 42.5344 107.407C42.3541 107.47 42.1563 107.458 41.9846 107.375C41.8129 107.292 41.6814 107.144 41.6188 106.963C41.5563 106.783 41.5679 106.585 41.6512 106.414C41.7345 106.242 41.8825 106.11 42.0628 106.048C47.9068 104.132 53.834 102.44 59.7181 100.657C59.8325 100.631 59.9526 100.647 60.0553 100.704C60.158 100.761 60.236 100.854 60.2745 100.965C60.3129 101.076 60.3091 101.197 60.2636 101.305C60.2182 101.413 60.1344 101.501 60.0283 101.551Z" fill="white"/>
<path d="M65.2793 95.9284C57.0403 100.58 48.3351 104.353 39.3074 107.186C38.132 107.546 37.4995 105.757 38.678 105.371C47.6103 102.53 56.3293 99.0582 64.769 94.9806C65.3102 94.7168 65.7817 95.637 65.2514 95.9322L65.2793 95.9284Z" fill="white"/>
<path d="M47.7655 99.366C44.1154 102.233 40.7348 105.427 37.6659 108.909L37.071 107.193C43.631 107.843 50.0734 109.374 56.2241 111.745C57.5801 112.277 56.7162 114.076 55.4826 113.965C50.9846 113.563 46.5076 113.018 42.0513 112.297C40.0765 111.974 37.8033 111.872 35.8995 111.197C35.177 110.938 34.5617 110.717 34.3049 109.893C33.7061 107.71 37.6799 104.422 38.9857 103.12C41.7266 100.421 44.8436 98.1321 48.2398 96.3252C48.4963 96.1485 48.8124 96.0809 49.1187 96.1372C49.425 96.1936 49.6963 96.3693 49.873 96.6258C50.0498 96.8822 50.1174 97.1983 50.061 97.5046C50.0046 97.8109 49.8289 98.0822 49.5725 98.259C44.2583 102.445 38.9441 106.632 33.9762 111.225L33.0256 109.329C38.3738 109.548 43.7423 109.42 49.0617 109.859C50.1584 109.948 49.9742 111.646 48.9391 111.736C43.7301 112.171 38.389 111.821 33.1724 111.627C32.3126 111.597 31.4204 110.477 32.2218 109.731C37.3208 104.974 42.7573 100.634 48.2346 96.327L49.5672 98.2608C47.0852 99.5704 44.7516 101.144 42.6069 102.954C41.2651 104.107 40.0112 105.358 38.8557 106.698C38.4877 107.2 38.0914 107.682 37.6689 108.14L37.1002 108.882C36.1767 108.843 36.0931 108.872 36.8492 108.969C39.5629 110.037 43.1887 110.104 46.0957 110.513C49.3605 110.974 52.638 111.337 55.927 111.632L55.1854 113.851C49.1682 111.433 42.9251 110.594 36.6442 109.24C36.466 109.201 36.3007 109.117 36.1642 108.996C36.0277 108.875 35.9246 108.721 35.8649 108.549C35.8051 108.377 35.7907 108.192 35.823 108.013C35.8553 107.833 35.9333 107.665 36.0493 107.524C39.3149 104.011 43.0254 100.94 47.0868 98.3888C47.211 98.3356 47.3499 98.3268 47.4798 98.3641C47.6097 98.4014 47.7228 98.4824 47.7998 98.5935C47.8769 98.7045 47.9133 98.8387 47.9028 98.9735C47.8924 99.1083 47.8357 99.2353 47.7423 99.3331L47.7655 99.366Z" fill="white"/>
</svg>
