<svg width="185" height="19" viewBox="0 0 185 19" fill="none" xmlns="http://www.w3.org/2000/svg">
<path d="M7.672 18C7.45867 18 7.26667 17.9253 7.096 17.776C6.94667 17.6053 6.872 17.4133 6.872 17.2V2.48H0.888C0.674667 2.48 0.482667 2.40533 0.312 2.256C0.162667 2.08533 0.0880001 1.89333 0.0880001 1.68C0.0880001 1.44533 0.162667 1.25333 0.312 1.104C0.482667 0.954666 0.674667 0.879999 0.888 0.879999H14.584C14.8187 0.879999 15.0107 0.954666 15.16 1.104C15.3093 1.25333 15.384 1.44533 15.384 1.68C15.384 1.89333 15.3093 2.08533 15.16 2.256C15.0107 2.40533 14.8187 2.48 14.584 2.48H8.472V17.2C8.472 17.4133 8.39733 17.6053 8.248 17.776C8.09867 17.9253 7.90667 18 7.672 18ZM32.7248 18C32.5114 18 32.3194 17.9253 32.1488 17.776C31.9994 17.6053 31.9248 17.4133 31.9248 17.2V9.68H21.2048V17.2C21.2048 17.4133 21.1301 17.6053 20.9808 17.776C20.8314 17.9253 20.6394 18 20.4048 18C20.1914 18 19.9994 17.9253 19.8288 17.776C19.6794 17.6053 19.6048 17.4133 19.6048 17.2V1.68C19.6048 1.44533 19.6794 1.25333 19.8288 1.104C19.9994 0.954666 20.1914 0.879999 20.4048 0.879999C20.6394 0.879999 20.8314 0.954666 20.9808 1.104C21.1301 1.25333 21.2048 1.44533 21.2048 1.68V8.08H31.9248V1.68C31.9248 1.44533 31.9994 1.25333 32.1488 1.104C32.3194 0.954666 32.5114 0.879999 32.7248 0.879999C32.9594 0.879999 33.1514 0.954666 33.3008 1.104C33.4501 1.25333 33.5248 1.44533 33.5248 1.68V17.2C33.5248 17.4133 33.4501 17.6053 33.3008 17.776C33.1514 17.9253 32.9594 18 32.7248 18ZM40.5923 18C40.3789 18 40.1869 17.9253 40.0163 17.776C39.8669 17.6053 39.7923 17.4133 39.7923 17.2V1.68C39.7923 1.46667 39.8563 1.28533 39.9843 1.136C40.1336 0.965333 40.3043 0.879999 40.4963 0.879999H49.4563C49.6909 0.879999 49.8829 0.954666 50.0323 1.104C50.1816 1.25333 50.2563 1.44533 50.2563 1.68C50.2563 1.89333 50.1816 2.08533 50.0323 2.256C49.8829 2.40533 49.6909 2.48 49.4563 2.48H41.3923V8.048H48.0803C48.3149 8.048 48.5069 8.12267 48.6563 8.272C48.8056 8.42133 48.8803 8.61333 48.8803 8.848C48.8803 9.06133 48.8056 9.25333 48.6563 9.424C48.5069 9.57333 48.3149 9.648 48.0803 9.648H41.3923V16.4H49.5203C49.7549 16.4 49.9469 16.4747 50.0963 16.624C50.2456 16.7733 50.3203 16.9653 50.3203 17.2C50.3203 17.4133 50.2456 17.6053 50.0963 17.776C49.9469 17.9253 49.7549 18 49.5203 18H40.5923ZM73.3088 2.992C72.7968 2.77867 72.2314 2.608 71.6128 2.48C71.0154 2.352 70.2261 2.288 69.2448 2.288C68.1568 2.288 67.2928 2.56533 66.6528 3.12C66.0127 3.65333 65.6927 4.26133 65.6927 4.944C65.6927 5.62667 65.9914 6.24533 66.5888 6.8C67.1861 7.35467 68.3488 7.83467 70.0768 8.24C71.6128 8.58133 72.7968 9.01867 73.6288 9.552C74.4821 10.0853 75.0794 10.6933 75.4208 11.376C75.7621 12.0373 75.9328 12.7733 75.9328 13.584C75.9328 14.3733 75.7301 15.1307 75.3248 15.856C74.9408 16.56 74.3008 17.1467 73.4048 17.616C72.5301 18.064 71.3568 18.288 69.8848 18.288C67.7941 18.288 65.8634 17.7973 64.0928 16.816C63.8154 16.6453 63.6768 16.4107 63.6768 16.112C63.6768 15.92 63.7514 15.7387 63.9008 15.568C64.0501 15.3973 64.2421 15.312 64.4768 15.312C64.6048 15.312 64.7328 15.344 64.8608 15.408C66.3754 16.2613 68.0501 16.688 69.8848 16.688C71.3354 16.688 72.4341 16.3893 73.1808 15.792C73.9488 15.1733 74.3328 14.4373 74.3328 13.584C74.3328 12.688 73.9701 11.9413 73.2448 11.344C72.5408 10.7467 71.3781 10.2453 69.7568 9.84C68.2421 9.456 67.0688 9.01867 66.2368 8.528C65.4261 8.03733 64.8608 7.48267 64.5408 6.864C64.2421 6.24533 64.0928 5.56267 64.0928 4.816C64.0928 4.13333 64.2848 3.48267 64.6688 2.864C65.0741 2.224 65.6608 1.70133 66.4288 1.296C67.1968 0.890666 68.1354 0.688 69.2448 0.688C70.4181 0.688 71.3568 0.784 72.0608 0.976C72.7861 1.14667 73.5434 1.392 74.3328 1.712C74.6741 1.84 74.8448 2.08533 74.8448 2.448C74.8448 2.66133 74.7594 2.85333 74.5888 3.024C74.4394 3.17333 74.2581 3.248 74.0448 3.248C74.0021 3.248 73.9381 3.23733 73.8528 3.216C73.7674 3.17333 73.5861 3.09867 73.3088 2.992ZM88.1165 0.591999C89.6312 0.591999 91.0072 0.965333 92.2445 1.712C93.5032 2.45867 94.4952 3.504 95.2205 4.848C95.9672 6.17067 96.3405 7.70667 96.3405 9.456C96.3405 11.12 96.0098 12.624 95.3485 13.968C94.7085 15.2907 93.7698 16.3467 92.5325 17.136C91.3165 17.904 89.8445 18.288 88.1165 18.288C86.4952 18.288 85.0552 17.904 83.7965 17.136C82.5378 16.3467 81.5458 15.2907 80.8205 13.968C80.1165 12.6453 79.7645 11.1733 79.7645 9.552C79.7645 7.76 80.1165 6.192 80.8205 4.848C81.5245 3.504 82.4952 2.45867 83.7325 1.712C84.9912 0.965333 86.4525 0.591999 88.1165 0.591999ZM88.1165 2.192C86.7725 2.192 85.5885 2.512 84.5645 3.152C83.5618 3.77067 82.7725 4.63467 82.1965 5.744C81.6418 6.832 81.3645 8.10133 81.3645 9.552C81.3645 10.8533 81.6418 12.048 82.1965 13.136C82.7725 14.224 83.5725 15.088 84.5965 15.728C85.6205 16.368 86.7938 16.688 88.1165 16.688C89.5245 16.688 90.7192 16.368 91.7005 15.728C92.7032 15.088 93.4605 14.224 93.9725 13.136C94.4845 12.0267 94.7405 10.8 94.7405 9.456C94.7405 8.048 94.4418 6.8 93.8445 5.712C93.2685 4.624 92.4792 3.77067 91.4765 3.152C90.4738 2.512 89.3538 2.192 88.1165 2.192ZM103.177 17.2C103.177 17.4133 103.103 17.6053 102.953 17.776C102.804 17.9253 102.612 18 102.377 18C102.164 18 101.972 17.9253 101.801 17.776C101.652 17.6053 101.577 17.4133 101.577 17.2V1.68C101.577 1.44533 101.652 1.25333 101.801 1.104C101.972 0.954666 102.164 0.879999 102.377 0.879999C102.612 0.879999 102.804 0.954666 102.953 1.104C103.103 1.25333 103.177 1.44533 103.177 1.68V17.2ZM110.405 18C110.191 18 109.999 17.9253 109.829 17.776C109.679 17.6053 109.605 17.4133 109.605 17.2V1.68C109.605 1.44533 109.679 1.25333 109.829 1.104C109.999 0.954666 110.191 0.879999 110.405 0.879999C110.639 0.879999 110.831 0.954666 110.981 1.104C111.13 1.25333 111.205 1.44533 111.205 1.68V16.4H119.077C119.311 16.4 119.503 16.4747 119.653 16.624C119.802 16.7733 119.877 16.9653 119.877 17.2C119.877 17.4133 119.802 17.6053 119.653 17.776C119.503 17.9253 119.311 18 119.077 18H110.405ZM142.215 2.992C141.703 2.77867 141.138 2.608 140.519 2.48C139.922 2.352 139.132 2.288 138.151 2.288C137.063 2.288 136.199 2.56533 135.559 3.12C134.919 3.65333 134.599 4.26133 134.599 4.944C134.599 5.62667 134.898 6.24533 135.495 6.8C136.092 7.35467 137.255 7.83467 138.983 8.24C140.519 8.58133 141.703 9.01867 142.535 9.552C143.388 10.0853 143.986 10.6933 144.327 11.376C144.668 12.0373 144.839 12.7733 144.839 13.584C144.839 14.3733 144.636 15.1307 144.231 15.856C143.847 16.56 143.207 17.1467 142.311 17.616C141.436 18.064 140.263 18.288 138.791 18.288C136.7 18.288 134.77 17.7973 132.999 16.816C132.722 16.6453 132.583 16.4107 132.583 16.112C132.583 15.92 132.658 15.7387 132.807 15.568C132.956 15.3973 133.148 15.312 133.383 15.312C133.511 15.312 133.639 15.344 133.767 15.408C135.282 16.2613 136.956 16.688 138.791 16.688C140.242 16.688 141.34 16.3893 142.087 15.792C142.855 15.1733 143.239 14.4373 143.239 13.584C143.239 12.688 142.876 11.9413 142.151 11.344C141.447 10.7467 140.284 10.2453 138.663 9.84C137.148 9.456 135.975 9.01867 135.143 8.528C134.332 8.03733 133.767 7.48267 133.447 6.864C133.148 6.24533 132.999 5.56267 132.999 4.816C132.999 4.13333 133.191 3.48267 133.575 2.864C133.98 2.224 134.567 1.70133 135.335 1.296C136.103 0.890666 137.042 0.688 138.151 0.688C139.324 0.688 140.263 0.784 140.967 0.976C141.692 1.14667 142.45 1.392 143.239 1.712C143.58 1.84 143.751 2.08533 143.751 2.448C143.751 2.66133 143.666 2.85333 143.495 3.024C143.346 3.17333 143.164 3.248 142.951 3.248C142.908 3.248 142.844 3.23733 142.759 3.216C142.674 3.17333 142.492 3.09867 142.215 2.992ZM157.023 0.591999C158.537 0.591999 159.913 0.965333 161.151 1.712C162.409 2.45867 163.401 3.504 164.127 4.848C164.873 6.17067 165.247 7.70667 165.247 9.456C165.247 11.12 164.916 12.624 164.255 13.968C163.615 15.2907 162.676 16.3467 161.439 17.136C160.223 17.904 158.751 18.288 157.023 18.288C155.401 18.288 153.961 17.904 152.703 17.136C151.444 16.3467 150.452 15.2907 149.727 13.968C149.023 12.6453 148.671 11.1733 148.671 9.552C148.671 7.76 149.023 6.192 149.727 4.848C150.431 3.504 151.401 2.45867 152.639 1.712C153.897 0.965333 155.359 0.591999 157.023 0.591999ZM157.023 2.192C155.679 2.192 154.495 2.512 153.471 3.152C152.468 3.77067 151.679 4.63467 151.103 5.744C150.548 6.832 150.271 8.10133 150.271 9.552C150.271 10.8533 150.548 12.048 151.103 13.136C151.679 14.224 152.479 15.088 153.503 15.728C154.527 16.368 155.7 16.688 157.023 16.688C158.431 16.688 159.625 16.368 160.607 15.728C161.609 15.088 162.367 14.224 162.879 13.136C163.391 12.0267 163.647 10.8 163.647 9.456C163.647 8.048 163.348 6.8 162.751 5.712C162.175 4.624 161.385 3.77067 160.383 3.152C159.38 2.512 158.26 2.192 157.023 2.192ZM182.74 17.68C182.014 16.6987 181.172 15.6 180.212 14.384C179.273 13.168 178.302 11.9307 177.3 10.672C176.297 9.392 175.326 8.15467 174.388 6.96C173.47 5.76533 172.649 4.70933 171.924 3.792V17.2C171.924 17.4133 171.849 17.6053 171.7 17.776C171.55 17.9253 171.358 18 171.124 18C170.91 18 170.718 17.9253 170.548 17.776C170.398 17.6053 170.324 17.4133 170.324 17.2V1.68C170.324 1.44533 170.398 1.25333 170.548 1.104C170.718 0.954666 170.9 0.879999 171.092 0.879999C171.518 0.879999 171.806 0.986666 171.956 1.2C172.489 1.904 173.182 2.81067 174.036 3.92C174.889 5.008 175.817 6.20267 176.82 7.504C177.844 8.784 178.868 10.0853 179.892 11.408C180.937 12.7093 181.897 13.936 182.772 15.088V1.68C182.772 1.44533 182.846 1.25333 182.996 1.104C183.166 0.954666 183.358 0.879999 183.572 0.879999C183.806 0.879999 183.998 0.954666 184.148 1.104C184.297 1.25333 184.372 1.44533 184.372 1.68V17.2C184.372 17.4133 184.297 17.6053 184.148 17.776C183.998 17.9253 183.817 18 183.604 18C183.177 18 182.889 17.8933 182.74 17.68Z" fill="#363636"/>
<path d="M7.096 17.776L6.34342 18.4345L6.38732 18.4847L6.4375 18.5286L7.096 17.776ZM6.872 2.48H7.872V1.48H6.872V2.48ZM0.312 2.256L-0.440576 2.91451L-0.396676 2.96468L-0.346504 3.00858L0.312 2.256ZM0.312 1.104L-0.346506 0.351425L-0.371563 0.373349L-0.395105 0.396892L0.312 1.104ZM15.16 1.104L14.4529 1.8111L14.4529 1.81111L15.16 1.104ZM15.16 2.256L15.8671 2.96311L15.8906 2.93956L15.9126 2.91451L15.16 2.256ZM8.472 2.48V1.48H7.472V2.48H8.472ZM8.248 17.776L8.95511 18.4831L8.97865 18.4596L9.00058 18.4345L8.248 17.776ZM7.672 17C7.68483 17 7.70678 17.0028 7.73045 17.012C7.7532 17.0208 7.76113 17.0292 7.75451 17.0234L6.4375 18.5286C6.77796 18.8265 7.20035 19 7.672 19V17ZM7.84858 17.1175C7.84278 17.1109 7.85116 17.1188 7.86 17.1416C7.86921 17.1652 7.872 17.1872 7.872 17.2H5.872C5.872 17.6717 6.04551 18.094 6.34342 18.4345L7.84858 17.1175ZM7.872 17.2V2.48H5.872V17.2H7.872ZM6.872 1.48H0.888V3.48H6.872V1.48ZM0.888 1.48C0.900835 1.48 0.922783 1.48279 0.946446 1.49199C0.969199 1.50084 0.977132 1.50922 0.970505 1.50342L-0.346504 3.00858C-0.00603563 3.30649 0.416348 3.48 0.888 3.48V1.48ZM1.06458 1.59749C1.05878 1.59087 1.06716 1.5988 1.076 1.62155C1.08521 1.64522 1.088 1.66716 1.088 1.68H-0.912C-0.912 2.15165 -0.738488 2.57403 -0.440576 2.91451L1.06458 1.59749ZM1.088 1.68C1.088 1.66956 1.08941 1.68797 1.076 1.72245C1.0618 1.75898 1.03996 1.79025 1.01911 1.81111L-0.395105 0.396892C-0.753643 0.755428 -0.912 1.21241 -0.912 1.68H1.088ZM0.970506 1.85658C0.977134 1.85078 0.9692 1.85916 0.946448 1.868C0.922784 1.87721 0.900835 1.88 0.888 1.88V-0.120001C0.416346 -0.120001 -0.00603741 0.0535135 -0.346506 0.351425L0.970506 1.85658ZM0.888 1.88H14.584V-0.120001H0.888V1.88ZM14.584 1.88C14.5944 1.88 14.576 1.88141 14.5416 1.868C14.505 1.8538 14.4737 1.83196 14.4529 1.8111L15.8671 0.396896C15.5086 0.0383568 15.0516 -0.120001 14.584 -0.120001V1.88ZM14.4529 1.81111C14.432 1.79026 14.4102 1.75898 14.396 1.72245C14.3826 1.68797 14.384 1.66956 14.384 1.68H16.384C16.384 1.21241 16.2256 0.755426 15.8671 0.39689L14.4529 1.81111ZM14.384 1.68C14.384 1.66716 14.3868 1.64522 14.396 1.62155C14.4048 1.5988 14.4132 1.59087 14.4074 1.59749L15.9126 2.91451C16.2105 2.57404 16.384 2.15165 16.384 1.68H14.384ZM14.4529 1.54889C14.4737 1.52804 14.505 1.5062 14.5416 1.49199C14.576 1.47859 14.5944 1.48 14.584 1.48V3.48C15.0516 3.48 15.5086 3.32164 15.8671 2.96311L14.4529 1.54889ZM14.584 1.48H8.472V3.48H14.584V1.48ZM7.472 2.48V17.2H9.472V2.48H7.472ZM7.472 17.2C7.472 17.1872 7.47479 17.1652 7.484 17.1416C7.49284 17.1188 7.50122 17.1109 7.49542 17.1175L9.00058 18.4345C9.29849 18.094 9.472 17.6717 9.472 17.2H7.472ZM7.54089 17.0689C7.56175 17.048 7.59302 17.0262 7.62955 17.012C7.66403 16.9986 7.68244 17 7.672 17V19C8.13959 19 8.59657 18.8416 8.95511 18.4831L7.54089 17.0689ZM32.1488 17.776L31.3962 18.4345L31.4401 18.4847L31.4902 18.5286L32.1488 17.776ZM31.9248 9.68H32.9248V8.68H31.9248V9.68ZM21.2048 9.68V8.68H20.2048V9.68H21.2048ZM20.9808 17.776L21.6879 18.4831L21.7114 18.4596L21.7333 18.4345L20.9808 17.776ZM19.8288 17.776L19.0762 18.4345L19.1201 18.4847L19.1702 18.5286L19.8288 17.776ZM19.8288 1.104L19.1702 0.351425L19.1452 0.373349L19.1216 0.396892L19.8288 1.104ZM20.9808 1.104L20.2736 1.81111L20.2736 1.81111L20.9808 1.104ZM21.2048 8.08H20.2048V9.08H21.2048V8.08ZM31.9248 8.08V9.08H32.9248V8.08H31.9248ZM32.1488 1.104L31.4902 0.351424L31.4652 0.373349L31.4416 0.396892L32.1488 1.104ZM33.3008 1.104L32.5936 1.8111L32.5936 1.81111L33.3008 1.104ZM33.3008 17.776L34.0079 18.4831L34.0314 18.4596L34.0533 18.4345L33.3008 17.776ZM32.7248 17C32.7376 17 32.7595 17.0028 32.7832 17.012C32.806 17.0208 32.8139 17.0292 32.8073 17.0234L31.4902 18.5286C31.8307 18.8265 32.2531 19 32.7248 19V17ZM32.9013 17.1175C32.8955 17.1109 32.9039 17.1188 32.9128 17.1416C32.922 17.1652 32.9248 17.1872 32.9248 17.2H30.9248C30.9248 17.6717 31.0983 18.094 31.3962 18.4345L32.9013 17.1175ZM32.9248 17.2V9.68H30.9248V17.2H32.9248ZM31.9248 8.68H21.2048V10.68H31.9248V8.68ZM20.2048 9.68V17.2H22.2048V9.68H20.2048ZM20.2048 17.2C20.2048 17.1872 20.2075 17.1652 20.2167 17.1416C20.2256 17.1188 20.234 17.1109 20.2282 17.1175L21.7333 18.4345C22.0312 18.094 22.2048 17.6717 22.2048 17.2H20.2048ZM20.2736 17.0689C20.2945 17.048 20.3258 17.0262 20.3623 17.012C20.3968 16.9986 20.4152 17 20.4048 17V19C20.8723 19 21.3293 18.8416 21.6879 18.4831L20.2736 17.0689ZM20.4048 17C20.4176 17 20.4395 17.0028 20.4632 17.012C20.4859 17.0208 20.4939 17.0292 20.4873 17.0234L19.1702 18.5286C19.5107 18.8265 19.9331 19 20.4048 19V17ZM20.5813 17.1175C20.5755 17.1109 20.5839 17.1188 20.5928 17.1416C20.602 17.1652 20.6047 17.1872 20.6047 17.2H18.6047C18.6047 17.6717 18.7783 18.094 19.0762 18.4345L20.5813 17.1175ZM20.6047 17.2V1.68H18.6047V17.2H20.6047ZM20.6047 1.68C20.6047 1.66956 20.6062 1.68797 20.5928 1.72245C20.5785 1.75898 20.5567 1.79025 20.5359 1.81111L19.1216 0.396892C18.7631 0.755428 18.6047 1.21241 18.6047 1.68H20.6047ZM20.4873 1.85658C20.4939 1.85078 20.486 1.85916 20.4632 1.868C20.4395 1.87721 20.4176 1.88 20.4048 1.88V-0.120001C19.9331 -0.120001 19.5107 0.0535135 19.1702 0.351425L20.4873 1.85658ZM20.4048 1.88C20.4152 1.88 20.3968 1.88141 20.3623 1.868C20.3258 1.8538 20.2945 1.83196 20.2736 1.81111L21.6879 0.396895C21.3293 0.0383568 20.8723 -0.120001 20.4048 -0.120001V1.88ZM20.2736 1.81111C20.2528 1.79025 20.231 1.75898 20.2167 1.72245C20.2033 1.68797 20.2048 1.66956 20.2048 1.68H22.2048C22.2048 1.21241 22.0464 0.755428 21.6879 0.396892L20.2736 1.81111ZM20.2048 1.68V8.08H22.2048V1.68H20.2048ZM21.2048 9.08H31.9248V7.08H21.2048V9.08ZM32.9248 8.08V1.68H30.9248V8.08H32.9248ZM32.9248 1.68C32.9248 1.66956 32.9262 1.68797 32.9128 1.72245C32.8985 1.75898 32.8767 1.79025 32.8559 1.81111L31.4416 0.396892C31.0831 0.755428 30.9248 1.21241 30.9248 1.68H32.9248ZM32.8073 1.85658C32.8139 1.85078 32.806 1.85916 32.7832 1.868C32.7595 1.87721 32.7376 1.88 32.7248 1.88V-0.120001C32.2531 -0.120001 31.8307 0.0535135 31.4902 0.351424L32.8073 1.85658ZM32.7248 1.88C32.7352 1.88 32.7168 1.88141 32.6823 1.868C32.6458 1.8538 32.6145 1.83196 32.5936 1.8111L34.0079 0.396896C33.6493 0.0383563 33.1923 -0.120001 32.7248 -0.120001V1.88ZM32.5936 1.81111C32.5728 1.79026 32.551 1.75898 32.5367 1.72245C32.5233 1.68797 32.5247 1.66956 32.5247 1.68H34.5247C34.5247 1.21241 34.3664 0.755426 34.0079 0.39689L32.5936 1.81111ZM32.5247 1.68V17.2H34.5247V1.68H32.5247ZM32.5247 17.2C32.5247 17.1872 32.5275 17.1652 32.5367 17.1416C32.5456 17.1188 32.554 17.1109 32.5482 17.1175L34.0533 18.4345C34.3512 18.094 34.5247 17.6717 34.5247 17.2H32.5247ZM32.5936 17.0689C32.6145 17.048 32.6458 17.0262 32.6823 17.012C32.7168 16.9986 32.7352 17 32.7248 17V19C33.1923 19 33.6493 18.8416 34.0079 18.4831L32.5936 17.0689ZM40.0163 17.776L39.2637 18.4345L39.3076 18.4847L39.3577 18.5286L40.0163 17.776ZM39.9842 1.136L39.2316 0.477461L39.225 0.485207L39.9842 1.136ZM50.0322 1.104L49.3251 1.81111L49.3251 1.81111L50.0322 1.104ZM50.0322 2.256L50.7394 2.96311L50.7629 2.93956L50.7848 2.91451L50.0322 2.256ZM41.3923 2.48V1.48H40.3923V2.48H41.3923ZM41.3923 8.048H40.3923V9.048H41.3923V8.048ZM48.6562 9.424L49.3634 10.1311L49.3869 10.1076L49.4088 10.0825L48.6562 9.424ZM41.3923 9.648V8.648H40.3923V9.648H41.3923ZM41.3923 16.4H40.3923V17.4H41.3923V16.4ZM50.0963 17.776L50.8034 18.4831L50.8269 18.4596L50.8488 18.4345L50.0963 17.776ZM40.5923 17C40.6051 17 40.627 17.0028 40.6507 17.012C40.6735 17.0208 40.6814 17.0292 40.6748 17.0234L39.3577 18.5286C39.6982 18.8265 40.1206 19 40.5923 19V17ZM40.7688 17.1175C40.763 17.1109 40.7714 17.1188 40.7803 17.1416C40.7895 17.1652 40.7923 17.1872 40.7923 17.2H38.7923C38.7923 17.6717 38.9658 18.094 39.2637 18.4345L40.7688 17.1175ZM40.7923 17.2V1.68H38.7923V17.2H40.7923ZM40.7923 1.68C40.7923 1.67437 40.7929 1.68954 40.7832 1.71682C40.7732 1.74526 40.758 1.7699 40.7435 1.78679L39.225 0.485207C38.928 0.831666 38.7923 1.24974 38.7923 1.68H40.7923ZM40.7368 1.7945C40.7418 1.78883 40.722 1.81318 40.6715 1.83843C40.617 1.86564 40.5545 1.88 40.4963 1.88V-0.120001C39.963 -0.120001 39.5331 0.133029 39.2317 0.477496L40.7368 1.7945ZM40.4963 1.88H49.4562V-0.120001H40.4963V1.88ZM49.4562 1.88C49.4667 1.88 49.4483 1.88141 49.4138 1.868C49.3773 1.8538 49.346 1.83196 49.3251 1.81111L50.7394 0.396895C50.3808 0.0383568 49.9238 -0.120001 49.4562 -0.120001V1.88ZM49.3251 1.81111C49.3043 1.79025 49.2825 1.75898 49.2682 1.72245C49.2548 1.68797 49.2562 1.66956 49.2562 1.68H51.2562C51.2562 1.21241 51.0979 0.755428 50.7394 0.396892L49.3251 1.81111ZM49.2562 1.68C49.2562 1.66716 49.259 1.64522 49.2682 1.62155C49.2771 1.5988 49.2855 1.59087 49.2797 1.59749L50.7848 2.91451C51.0827 2.57403 51.2562 2.15165 51.2562 1.68H49.2562ZM49.3251 1.54889C49.346 1.52804 49.3773 1.5062 49.4138 1.49199C49.4483 1.47859 49.4667 1.48 49.4562 1.48V3.48C49.9238 3.48 50.3808 3.32164 50.7394 2.96311L49.3251 1.54889ZM49.4562 1.48H41.3923V3.48H49.4562V1.48ZM40.3923 2.48V8.048H42.3923V2.48H40.3923ZM41.3923 9.048H48.0802V7.048H41.3923V9.048ZM48.0802 9.048C48.0907 9.048 48.0723 9.04941 48.0378 9.03601C48.0013 9.0218 47.97 8.99996 47.9491 8.97911L49.3634 7.56489C49.0048 7.20636 48.5478 7.048 48.0802 7.048V9.048ZM47.9491 8.97911C47.9283 8.95825 47.9065 8.92698 47.8922 8.89045C47.8788 8.85597 47.8802 8.83756 47.8802 8.848H49.8802C49.8802 8.38041 49.7219 7.92343 49.3634 7.56489L47.9491 8.97911ZM47.8802 8.848C47.8802 8.83517 47.883 8.81322 47.8922 8.78955C47.9011 8.7668 47.9095 8.75887 47.9037 8.7655L49.4088 10.0825C49.7067 9.74203 49.8802 9.31965 49.8802 8.848H47.8802ZM47.9491 8.71689C47.97 8.69604 48.0013 8.6742 48.0378 8.66C48.0723 8.64659 48.0907 8.648 48.0802 8.648V10.648C48.5478 10.648 49.0048 10.4896 49.3634 10.1311L47.9491 8.71689ZM48.0802 8.648H41.3923V10.648H48.0802V8.648ZM40.3923 9.648V16.4H42.3923V9.648H40.3923ZM41.3923 17.4H49.5202V15.4H41.3923V17.4ZM49.5202 17.4C49.5307 17.4 49.5123 17.4014 49.4778 17.388C49.4413 17.3738 49.41 17.352 49.3891 17.3311L50.8034 15.9169C50.4448 15.5584 49.9878 15.4 49.5202 15.4V17.4ZM49.3891 17.3311C49.3683 17.3103 49.3465 17.279 49.3322 17.2424C49.3188 17.208 49.3203 17.1896 49.3203 17.2H51.3203C51.3203 16.7324 51.1619 16.2754 50.8034 15.9169L49.3891 17.3311ZM49.3203 17.2C49.3203 17.1872 49.323 17.1652 49.3322 17.1416C49.3411 17.1188 49.3495 17.1109 49.3437 17.1175L50.8488 18.4345C51.1467 18.094 51.3203 17.6717 51.3203 17.2H49.3203ZM49.3891 17.0689C49.41 17.048 49.4413 17.0262 49.4778 17.012C49.5123 16.9986 49.5307 17 49.5202 17V19C49.9878 19 50.4448 18.8416 50.8034 18.4831L49.3891 17.0689ZM49.5202 17H40.5923V19H49.5202V17ZM73.3087 2.992L72.9241 3.91508L72.9369 3.92039L72.9498 3.92535L73.3087 2.992ZM71.6127 2.48L71.4032 3.45783L71.4101 3.45926L71.6127 2.48ZM66.6527 3.12L67.2929 3.88822L67.3004 3.88203L67.3077 3.87569L66.6527 3.12ZM66.5888 6.8L67.2692 6.06721V6.06721L66.5888 6.8ZM70.0768 8.24L69.8484 9.21364L69.8598 9.21619L70.0768 8.24ZM73.6288 9.552L73.0891 10.3939L73.0988 10.4L73.6288 9.552ZM75.4208 11.376L74.5263 11.8232L74.5321 11.8346L75.4208 11.376ZM75.3248 15.856L74.4518 15.3682L74.4469 15.3771L75.3248 15.856ZM73.4048 17.616L73.8606 18.5061L73.8688 18.5018L73.4048 17.616ZM64.0928 16.816L63.5686 17.6677L63.5881 17.6796L63.608 17.6907L64.0928 16.816ZM64.8607 15.408L65.3516 14.5368L65.3301 14.5246L65.308 14.5136L64.8607 15.408ZM73.1807 15.792L73.8055 16.5729L73.8081 16.5708L73.1807 15.792ZM73.2448 11.344L72.5978 12.1065L72.6034 12.1113L72.609 12.1159L73.2448 11.344ZM69.7568 9.84L69.511 10.8093L69.5142 10.8101L69.7568 9.84ZM66.2367 8.528L65.7189 9.38356L65.7288 9.38937L66.2367 8.528ZM64.5407 6.864L63.6402 7.29875L63.6462 7.31117L63.6525 7.32342L64.5407 6.864ZM64.6687 2.864L63.8239 2.32893L63.8191 2.33664L64.6687 2.864ZM66.4287 1.296L65.962 0.411614V0.411615L66.4287 1.296ZM72.0608 0.976L71.7976 1.94076L71.8146 1.94539L71.8317 1.94942L72.0608 0.976ZM74.3327 1.712L73.957 2.63874L73.9693 2.6437L73.9816 2.64833L74.3327 1.712ZM73.8528 3.216L73.4055 4.11043L73.5037 4.15952L73.6102 4.18614L73.8528 3.216ZM73.6934 2.06892C73.1152 1.82801 72.4879 1.63989 71.8154 1.50074L71.4101 3.45926C71.9749 3.57611 72.4783 3.72932 72.9241 3.91508L73.6934 2.06892ZM71.8223 1.5022C71.1275 1.35332 70.2596 1.288 69.2448 1.288V3.288C70.1925 3.288 70.9033 3.35068 71.4032 3.4578L71.8223 1.5022ZM69.2448 1.288C67.9863 1.288 66.8665 1.61149 65.9978 2.36431L67.3077 3.87569C67.719 3.51917 68.3272 3.288 69.2448 3.288V1.288ZM66.0126 2.35178C65.1997 3.02917 64.6927 3.89958 64.6927 4.944H66.6927C66.6927 4.62309 66.8258 4.2775 67.2929 3.88822L66.0126 2.35178ZM64.6927 4.944C64.6927 5.95832 65.1501 6.82875 65.9083 7.53279L67.2692 6.06721C66.8327 5.66192 66.6927 5.29501 66.6927 4.944H64.6927ZM65.9083 7.53279C66.7134 8.28036 68.1068 8.80505 69.8484 9.21357L70.3051 7.26643C68.5907 6.86428 67.6588 6.42897 67.2692 6.06721L65.9083 7.53279ZM69.8598 9.21619C71.3409 9.54531 72.3969 9.95015 73.0891 10.3939L74.1684 8.71012C73.1966 8.08719 71.8846 7.61736 70.2937 7.26381L69.8598 9.21619ZM73.0988 10.4C73.8445 10.8661 74.2896 11.3497 74.5263 11.8232L76.3152 10.9288C75.8693 10.037 75.1196 9.30456 74.1588 8.704L73.0988 10.4ZM74.5321 11.8346C74.7939 12.3418 74.9328 12.9184 74.9328 13.584H76.9328C76.9328 12.6283 76.7303 11.7329 76.3094 10.9174L74.5321 11.8346ZM74.9328 13.584C74.9328 14.1935 74.7784 14.7838 74.4518 15.3682L76.1977 16.3438C76.6818 15.4775 76.9328 14.5532 76.9328 13.584H74.9328ZM74.4469 15.3771C74.1796 15.8672 73.7073 16.3286 72.9407 16.7302L73.8688 18.5018C74.8942 17.9647 75.7019 17.2528 76.2026 16.3349L74.4469 15.3771ZM72.9489 16.726C72.2681 17.0747 71.2706 17.288 69.8848 17.288V19.288C71.4429 19.288 72.7921 19.0533 73.8606 18.506L72.9489 16.726ZM69.8848 17.288C67.9579 17.288 66.1949 16.8377 64.5775 15.9413L63.608 17.6907C65.532 18.757 67.6303 19.288 69.8848 19.288V17.288ZM64.6168 15.9643C64.5898 15.9477 64.6136 15.9558 64.6417 16.0033C64.655 16.0258 64.6647 16.0498 64.6706 16.0724C64.6763 16.0944 64.6768 16.1088 64.6768 16.112H62.6768C62.6768 16.794 63.0276 17.3347 63.5686 17.6677L64.6168 15.9643ZM64.6768 16.112C64.6768 16.1494 64.6687 16.1853 64.6574 16.2127C64.6471 16.2379 64.6398 16.242 64.6533 16.2265L63.1482 14.9095C62.8698 15.2276 62.6768 15.6352 62.6768 16.112H64.6768ZM64.6533 16.2265C64.6401 16.2416 64.6098 16.269 64.5629 16.2898C64.5168 16.3103 64.4829 16.312 64.4768 16.312V14.312C63.9652 14.312 63.4948 14.5133 63.1482 14.9095L64.6533 16.2265ZM64.4768 16.312C64.4565 16.312 64.4391 16.3094 64.4262 16.3061C64.4137 16.303 64.4093 16.3003 64.4135 16.3024L65.308 14.5136C65.0577 14.3884 64.7775 14.312 64.4768 14.312V16.312ZM64.3699 16.2792C66.0428 17.2217 67.888 17.688 69.8848 17.688V15.688C68.2122 15.688 66.7081 15.301 65.3516 14.5368L64.3699 16.2792ZM69.8848 17.688C71.4505 17.688 72.8103 17.369 73.8054 16.5729L72.5561 15.0111C72.0579 15.4097 71.2203 15.688 69.8848 15.688V17.688ZM73.8081 16.5708C74.7705 15.7954 75.3327 14.7891 75.3327 13.584H73.3327C73.3327 14.0855 73.127 14.5512 72.5534 15.0132L73.8081 16.5708ZM75.3327 13.584C75.3327 12.3728 74.8235 11.3487 73.8805 10.5721L72.609 12.1159C73.1166 12.5339 73.3327 13.0032 73.3327 13.584H75.3327ZM73.8917 10.5815C73.0106 9.8339 71.6676 9.28693 69.9993 8.86986L69.5142 10.8101C71.0886 11.2037 72.0709 11.6594 72.5978 12.1065L73.8917 10.5815ZM70.0025 8.87066C68.5306 8.49751 67.4603 8.08865 66.7447 7.66663L65.7288 9.38937C66.6772 9.94869 67.9536 10.4145 69.511 10.8093L70.0025 8.87066ZM66.7546 7.6725C66.0467 7.24404 65.6391 6.81078 65.429 6.40458L63.6525 7.32342C64.0824 8.15456 64.8055 8.83063 65.7189 9.3835L66.7546 7.6725ZM65.4413 6.42925C65.2136 5.95765 65.0928 5.42541 65.0928 4.816H63.0928C63.0928 5.69993 63.2705 6.53302 63.6402 7.29875L65.4413 6.42925ZM65.0928 4.816C65.0928 4.33224 65.2258 3.86269 65.5184 3.39136L63.8191 2.33664C63.3437 3.10264 63.0928 3.93443 63.0928 4.816H65.0928ZM65.5136 3.39905C65.8126 2.92693 66.2589 2.51635 66.8955 2.18038L65.962 0.411615C65.0626 0.886317 64.3356 1.52107 63.8239 2.32895L65.5136 3.39905ZM66.8955 2.18038C67.4852 1.86914 68.2541 1.688 69.2448 1.688V-0.312C68.0167 -0.312 66.9083 -0.0878086 65.962 0.411614L66.8955 2.18038ZM69.2448 1.688C70.3761 1.688 71.2152 1.78191 71.7976 1.94076L72.3239 0.0112362C71.4983 -0.213908 70.4601 -0.312 69.2448 -0.312V1.688ZM71.8317 1.94942C72.5005 2.10679 73.2087 2.33537 73.957 2.63874L74.7085 0.785261C73.8781 0.448631 73.0716 0.186542 72.2898 0.00258255L71.8317 1.94942ZM73.9816 2.64833C74.0046 2.65694 73.9498 2.64061 73.8958 2.56306C73.8416 2.48511 73.8447 2.42655 73.8447 2.448H75.8447C75.8447 2.10678 75.7626 1.74422 75.5377 1.42093C75.313 1.09805 75.0022 0.895058 74.6839 0.775671L73.9816 2.64833ZM73.8447 2.448C73.8447 2.41696 73.8519 2.37973 73.8669 2.34586C73.881 2.31433 73.8929 2.3056 73.8816 2.31689L75.2959 3.73111C75.6272 3.39975 75.8447 2.96225 75.8447 2.448H73.8447ZM73.8816 2.31689C73.8931 2.30546 73.9194 2.28402 73.96 2.26732C74.0004 2.2507 74.0323 2.248 74.0448 2.248V4.248C74.5203 4.248 74.9569 4.07011 75.2959 3.73111L73.8816 2.31689ZM74.0448 2.248C74.0744 2.248 74.0965 2.24978 74.1083 2.25096C74.1206 2.2522 74.1279 2.2534 74.1292 2.2536C74.1307 2.25387 74.1205 2.25217 74.0953 2.24586L73.6102 4.18614C73.7097 4.211 73.873 4.248 74.0448 4.248V2.248ZM74.3 2.32157C74.1639 2.25352 73.9362 2.16193 73.6677 2.05865L72.9498 3.92535C73.0844 3.97714 73.1912 4.01941 73.272 4.05268C73.3123 4.06927 73.344 4.08273 73.368 4.09332C73.3799 4.09855 73.3891 4.10269 73.3958 4.10581C73.4027 4.10901 73.4057 4.11049 73.4055 4.11043L74.3 2.32157ZM92.2445 1.712L91.7278 2.56821L91.7343 2.57205L92.2445 1.712ZM95.2205 4.848L94.3405 5.32293L94.345 5.33131L94.3497 5.33959L95.2205 4.848ZM95.3485 13.968L94.4512 13.5265L94.4483 13.5324L95.3485 13.968ZM92.5325 17.136L93.0665 17.9815L93.0703 17.9791L92.5325 17.136ZM83.7965 17.136L83.2652 17.9833L83.2756 17.9896L83.7965 17.136ZM80.8205 13.968L79.9377 14.4379L79.9437 14.4488L80.8205 13.968ZM80.8205 4.848L81.7063 5.31201V5.31201L80.8205 4.848ZM83.7325 1.712L83.2223 0.851921L83.2158 0.855812L83.7325 1.712ZM84.5645 3.152L85.0896 4.00305L85.0945 4L84.5645 3.152ZM82.1965 5.744L81.309 5.28317L81.3056 5.28981L82.1965 5.744ZM82.1965 13.136L81.3056 13.5902L81.3091 13.5971L81.3127 13.6039L82.1965 13.136ZM91.7005 15.728L91.1624 14.885L91.1542 14.8904L91.7005 15.728ZM93.9725 13.136L94.8773 13.5618L94.8805 13.5551L93.9725 13.136ZM93.8445 5.712L92.9607 6.17989L92.9643 6.1866L92.9679 6.19326L93.8445 5.712ZM91.4765 3.152L90.9385 3.99492L90.9449 3.99903L90.9514 4.00304L91.4765 3.152ZM88.1165 1.592C89.4582 1.592 90.6541 1.92023 91.7278 2.56819L92.7612 0.855812C91.3603 0.0104399 89.8041 -0.408001 88.1165 -0.408001V1.592ZM91.7343 2.57205C92.8301 3.22211 93.6973 4.13118 94.3405 5.32293L96.1005 4.37307C95.293 2.87681 94.1762 1.69522 92.7547 0.851945L91.7343 2.57205ZM94.3497 5.33959C94.9995 6.4908 95.3405 7.85248 95.3405 9.456H97.3405C97.3405 7.56085 96.9348 5.85053 96.0913 4.35641L94.3497 5.33959ZM95.3405 9.456C95.3405 10.9841 95.0378 12.3345 94.4512 13.5265L96.2458 14.4095C96.9819 12.9135 97.3405 11.2559 97.3405 9.456H95.3405ZM94.4483 13.5324C93.8889 14.6885 93.0756 15.6034 91.9947 16.2929L93.0703 17.9791C94.464 17.09 95.5281 15.8928 96.2487 14.4036L94.4483 13.5324ZM91.9985 16.2905C90.972 16.9389 89.6939 17.288 88.1165 17.288V19.288C89.9951 19.288 91.661 18.8692 93.0665 17.9815L91.9985 16.2905ZM88.1165 17.288C86.66 17.288 85.4038 16.9453 84.3174 16.2824L83.2756 17.9896C84.7066 18.8627 86.3303 19.288 88.1165 19.288V17.288ZM84.3278 16.2888C83.216 15.5916 82.3419 14.6626 81.6973 13.4872L79.9437 14.4488C80.7497 15.9187 81.8597 17.1018 83.2652 17.9832L84.3278 16.2888ZM81.7032 13.4982C81.0825 12.3318 80.7645 11.0233 80.7645 9.552H78.7645C78.7645 11.3234 79.1505 12.9588 79.9378 14.4378L81.7032 13.4982ZM80.7645 9.552C80.7645 7.89241 81.0898 6.48902 81.7063 5.31201L79.9347 4.38399C79.1432 5.89498 78.7645 7.62759 78.7645 9.552H80.7645ZM81.7063 5.31201C82.3299 4.12159 83.1764 3.21554 84.2492 2.56819L83.2158 0.855812C81.8139 1.70179 80.7191 2.8864 79.9347 4.38399L81.7063 5.31201ZM84.2427 2.57205C85.3267 1.929 86.607 1.592 88.1165 1.592V-0.408001C86.298 -0.408001 84.6556 0.00166655 83.2223 0.851945L84.2427 2.57205ZM88.1165 1.192C86.6069 1.192 85.235 1.5537 84.0345 2.304L85.0945 4C85.942 3.4703 86.9381 3.192 88.1165 3.192V1.192ZM84.0394 2.30096C82.8734 3.0204 81.963 4.02359 81.309 5.28318L83.084 6.20481C83.582 5.24574 84.2503 4.52093 85.0896 4.00304L84.0394 2.30096ZM81.3056 5.28981C80.6669 6.54258 80.3645 7.97294 80.3645 9.552H82.3645C82.3645 8.22973 82.6167 7.12142 83.0874 6.19819L81.3056 5.28981ZM80.3645 9.552C80.3645 11.0006 80.6745 12.3524 81.3056 13.5902L83.0874 12.6818C82.6091 11.7436 82.3645 10.7061 82.3645 9.552H80.3645ZM81.3127 13.6039C81.9694 14.8444 82.8901 15.8408 84.0665 16.576L85.1265 14.88C84.2549 14.3352 83.5756 13.6036 83.0803 12.6681L81.3127 13.6039ZM84.0665 16.576C85.2644 17.3247 86.6249 17.688 88.1165 17.688V15.688C86.9627 15.688 85.9766 15.4113 85.1265 14.88L84.0665 16.576ZM88.1165 17.688C89.6789 17.688 91.0727 17.3313 92.2468 16.5656L91.1542 14.8904C90.3657 15.4047 89.3701 15.688 88.1165 15.688V17.688ZM92.2385 16.5709C93.4022 15.8281 94.2858 14.8187 94.8773 13.5618L93.0677 12.7102C92.6352 13.6293 92.0041 14.3479 91.1625 14.8851L92.2385 16.5709ZM94.8805 13.5551C95.4589 12.3017 95.7405 10.9301 95.7405 9.456H93.7405C93.7405 10.6699 93.5101 11.7516 93.0645 12.7169L94.8805 13.5551ZM95.7405 9.456C95.7405 7.90268 95.4097 6.48509 94.7211 5.23074L92.9679 6.19326C93.4739 7.11491 93.7405 8.19332 93.7405 9.456H95.7405ZM94.7283 5.24411C94.0729 4.00611 93.1628 3.01742 92.0016 2.30096L90.9514 4.00304C91.7956 4.52391 92.4641 5.24189 92.9607 6.17989L94.7283 5.24411ZM92.0145 2.30908C90.8445 1.56224 89.5364 1.192 88.1165 1.192V3.192C89.1712 3.192 90.1032 3.46176 90.9385 3.99492L92.0145 2.30908ZM102.953 17.776L103.66 18.4831L103.684 18.4596L103.706 18.4345L102.953 17.776ZM101.801 17.776L101.049 18.4345L101.093 18.4847L101.143 18.5286L101.801 17.776ZM101.801 1.104L101.143 0.351425L101.118 0.373349L101.094 0.396892L101.801 1.104ZM102.953 1.104L102.246 1.81111L102.246 1.81111L102.953 1.104ZM102.177 17.2C102.177 17.1872 102.18 17.1652 102.189 17.1416C102.198 17.1188 102.206 17.1109 102.201 17.1175L103.706 18.4345C104.004 18.094 104.177 17.6717 104.177 17.2H102.177ZM102.246 17.0689C102.267 17.048 102.298 17.0262 102.335 17.012C102.369 16.9986 102.388 17 102.377 17V19C102.845 19 103.302 18.8416 103.66 18.4831L102.246 17.0689ZM102.377 17C102.39 17 102.412 17.0028 102.436 17.012C102.458 17.0208 102.466 17.0292 102.46 17.0234L101.143 18.5286C101.483 18.8265 101.906 19 102.377 19V17ZM102.554 17.1175C102.548 17.1109 102.556 17.1188 102.565 17.1416C102.574 17.1652 102.577 17.1872 102.577 17.2H100.577C100.577 17.6717 100.751 18.094 101.049 18.4345L102.554 17.1175ZM102.577 17.2V1.68H100.577V17.2H102.577ZM102.577 1.68C102.577 1.66956 102.579 1.68797 102.565 1.72245C102.551 1.75898 102.529 1.79025 102.508 1.81111L101.094 0.396892C100.736 0.755428 100.577 1.21241 100.577 1.68H102.577ZM102.46 1.85658C102.466 1.85078 102.458 1.85916 102.436 1.868C102.412 1.87721 102.39 1.88 102.377 1.88V-0.120001C101.906 -0.120001 101.483 0.0535135 101.143 0.351425L102.46 1.85658ZM102.377 1.88C102.388 1.88 102.369 1.88141 102.335 1.868C102.298 1.8538 102.267 1.83196 102.246 1.81111L103.66 0.396895C103.302 0.0383568 102.845 -0.120001 102.377 -0.120001V1.88ZM102.246 1.81111C102.225 1.79025 102.203 1.75898 102.189 1.72245C102.176 1.68797 102.177 1.66956 102.177 1.68H104.177C104.177 1.21241 104.019 0.755428 103.66 0.396892L102.246 1.81111ZM102.177 1.68V17.2H104.177V1.68H102.177ZM109.829 17.776L109.076 18.4345L109.12 18.4847L109.17 18.5286L109.829 17.776ZM109.829 1.104L109.17 0.351425L109.145 0.373349L109.122 0.396892L109.829 1.104ZM110.981 1.104L110.274 1.81111V1.81111L110.981 1.104ZM111.205 16.4H110.205V17.4H111.205V16.4ZM119.653 17.776L120.36 18.4831L120.383 18.4596L120.405 18.4345L119.653 17.776ZM110.405 17C110.418 17 110.44 17.0028 110.463 17.012C110.486 17.0208 110.494 17.0292 110.487 17.0234L109.17 18.5286C109.511 18.8265 109.933 19 110.405 19V17ZM110.581 17.1175C110.576 17.1109 110.584 17.1188 110.593 17.1416C110.602 17.1652 110.605 17.1872 110.605 17.2H108.605C108.605 17.6717 108.778 18.094 109.076 18.4345L110.581 17.1175ZM110.605 17.2V1.68H108.605V17.2H110.605ZM110.605 1.68C110.605 1.66956 110.606 1.68797 110.593 1.72245C110.579 1.75898 110.557 1.79025 110.536 1.81111L109.122 0.396892C108.763 0.755428 108.605 1.21241 108.605 1.68H110.605ZM110.487 1.85658C110.494 1.85078 110.486 1.85916 110.463 1.868C110.44 1.87721 110.418 1.88 110.405 1.88V-0.120001C109.933 -0.120001 109.511 0.0535135 109.17 0.351425L110.487 1.85658ZM110.405 1.88C110.415 1.88 110.397 1.88141 110.362 1.868C110.326 1.8538 110.294 1.83196 110.274 1.81111L111.688 0.396895C111.329 0.0383568 110.872 -0.120001 110.405 -0.120001V1.88ZM110.274 1.81111C110.253 1.79025 110.231 1.75898 110.217 1.72245C110.203 1.68797 110.205 1.66956 110.205 1.68H112.205C112.205 1.21241 112.046 0.755428 111.688 0.396892L110.274 1.81111ZM110.205 1.68V16.4H112.205V1.68H110.205ZM111.205 17.4H119.077V15.4H111.205V17.4ZM119.077 17.4C119.087 17.4 119.069 17.4014 119.034 17.388C118.998 17.3738 118.966 17.352 118.946 17.3311L120.36 15.9169C120.001 15.5584 119.544 15.4 119.077 15.4V17.4ZM118.946 17.3311C118.925 17.3103 118.903 17.279 118.889 17.2424C118.875 17.208 118.877 17.1896 118.877 17.2H120.877C120.877 16.7324 120.718 16.2754 120.36 15.9169L118.946 17.3311ZM118.877 17.2C118.877 17.1872 118.88 17.1652 118.889 17.1416C118.898 17.1188 118.906 17.1109 118.9 17.1175L120.405 18.4345C120.703 18.094 120.877 17.6717 120.877 17.2H118.877ZM118.946 17.0689C118.966 17.048 118.998 17.0262 119.034 17.012C119.069 16.9986 119.087 17 119.077 17V19C119.544 19 120.001 18.8416 120.36 18.4831L118.946 17.0689ZM119.077 17H110.405V19H119.077V17ZM142.215 2.992L141.83 3.91508L141.843 3.92039L141.856 3.92535L142.215 2.992ZM140.519 2.48L140.309 3.45783L140.316 3.45926L140.519 2.48ZM135.559 3.12L136.199 3.88822L136.207 3.88203L136.214 3.87569L135.559 3.12ZM135.495 6.8L136.175 6.06721V6.06721L135.495 6.8ZM138.983 8.24L138.755 9.21364L138.766 9.21619L138.983 8.24ZM142.535 9.552L141.995 10.3939L142.005 10.4L142.535 9.552ZM144.327 11.376L143.432 11.8232L143.438 11.8346L144.327 11.376ZM144.231 15.856L143.358 15.3682L143.353 15.3771L144.231 15.856ZM142.311 17.616L142.767 18.5061L142.775 18.5018L142.311 17.616ZM132.999 16.816L132.475 17.6677L132.494 17.6796L132.514 17.6907L132.999 16.816ZM133.767 15.408L134.258 14.5368L134.236 14.5246L134.214 14.5136L133.767 15.408ZM142.087 15.792L142.712 16.5729L142.714 16.5708L142.087 15.792ZM142.151 11.344L141.504 12.1065L141.51 12.1113L141.515 12.1159L142.151 11.344ZM138.663 9.84L138.417 10.8093L138.42 10.8101L138.663 9.84ZM135.143 8.528L134.625 9.38356L134.635 9.38937L135.143 8.528ZM133.447 6.864L132.546 7.29875L132.552 7.31117L132.559 7.32342L133.447 6.864ZM133.575 2.864L132.73 2.32893L132.725 2.33664L133.575 2.864ZM135.335 1.296L134.868 0.411614V0.411615L135.335 1.296ZM140.967 0.976L140.704 1.94076L140.721 1.94539L140.738 1.94942L140.967 0.976ZM143.239 1.712L142.863 2.63874L142.876 2.6437L142.888 2.64833L143.239 1.712ZM142.759 3.216L142.312 4.11043L142.41 4.15952L142.516 4.18614L142.759 3.216ZM142.6 2.06892C142.021 1.82801 141.394 1.63989 140.722 1.50074L140.316 3.45926C140.881 3.57611 141.385 3.72932 141.83 3.91508L142.6 2.06892ZM140.729 1.5022C140.034 1.35332 139.166 1.288 138.151 1.288V3.288C139.099 3.288 139.81 3.35068 140.309 3.4578L140.729 1.5022ZM138.151 1.288C136.893 1.288 135.773 1.61149 134.904 2.36431L136.214 3.87569C136.625 3.51917 137.233 3.288 138.151 3.288V1.288ZM134.919 2.35178C134.106 3.02917 133.599 3.89958 133.599 4.944H135.599C135.599 4.62309 135.732 4.2775 136.199 3.88822L134.919 2.35178ZM133.599 4.944C133.599 5.95832 134.056 6.82875 134.815 7.53279L136.175 6.06721C135.739 5.66192 135.599 5.29501 135.599 4.944H133.599ZM134.815 7.53279C135.62 8.28036 137.013 8.80505 138.755 9.21357L139.211 7.26643C137.497 6.86428 136.565 6.42897 136.175 6.06721L134.815 7.53279ZM138.766 9.21619C140.247 9.54531 141.303 9.95015 141.995 10.3939L143.075 8.71012C142.103 8.08719 140.791 7.61736 139.2 7.26381L138.766 9.21619ZM142.005 10.4C142.751 10.8661 143.196 11.3497 143.433 11.8232L145.221 10.9288C144.776 10.037 144.026 9.30456 143.065 8.704L142.005 10.4ZM143.438 11.8346C143.7 12.3418 143.839 12.9184 143.839 13.584H145.839C145.839 12.6283 145.637 11.7329 145.216 10.9174L143.438 11.8346ZM143.839 13.584C143.839 14.1935 143.685 14.7838 143.358 15.3682L145.104 16.3438C145.588 15.4775 145.839 14.5532 145.839 13.584H143.839ZM143.353 15.3771C143.086 15.8672 142.614 16.3286 141.847 16.7302L142.775 18.5018C143.8 17.9647 144.608 17.2528 145.109 16.3349L143.353 15.3771ZM141.855 16.726C141.174 17.0747 140.177 17.288 138.791 17.288V19.288C140.349 19.288 141.698 19.0533 142.767 18.506L141.855 16.726ZM138.791 17.288C136.864 17.288 135.101 16.8377 133.484 15.9413L132.514 17.6907C134.438 18.757 136.537 19.288 138.791 19.288V17.288ZM133.523 15.9643C133.496 15.9477 133.52 15.9558 133.548 16.0033C133.561 16.0258 133.571 16.0498 133.577 16.0724C133.583 16.0944 133.583 16.1088 133.583 16.112H131.583C131.583 16.794 131.934 17.3347 132.475 17.6677L133.523 15.9643ZM133.583 16.112C133.583 16.1494 133.575 16.1853 133.564 16.2127C133.553 16.2379 133.546 16.242 133.56 16.2265L132.054 14.9095C131.776 15.2276 131.583 15.6352 131.583 16.112H133.583ZM133.56 16.2265C133.546 16.2416 133.516 16.269 133.469 16.2898C133.423 16.3103 133.389 16.312 133.383 16.312V14.312C132.871 14.312 132.401 14.5133 132.054 14.9095L133.56 16.2265ZM133.383 16.312C133.363 16.312 133.345 16.3094 133.332 16.3061C133.32 16.303 133.316 16.3003 133.32 16.3024L134.214 14.5136C133.964 14.3884 133.684 14.312 133.383 14.312V16.312ZM133.276 16.2792C134.949 17.2217 136.794 17.688 138.791 17.688V15.688C137.118 15.688 135.614 15.301 134.258 14.5368L133.276 16.2792ZM138.791 17.688C140.357 17.688 141.717 17.369 142.712 16.5729L141.462 15.0111C140.964 15.4097 140.127 15.688 138.791 15.688V17.688ZM142.714 16.5708C143.677 15.7954 144.239 14.7891 144.239 13.584H142.239C142.239 14.0855 142.033 14.5512 141.46 15.0132L142.714 16.5708ZM144.239 13.584C144.239 12.3728 143.73 11.3487 142.787 10.5721L141.515 12.1159C142.023 12.5339 142.239 13.0032 142.239 13.584H144.239ZM142.798 10.5815C141.917 9.8339 140.574 9.28693 138.906 8.86986L138.42 10.8101C139.995 11.2037 140.977 11.6594 141.504 12.1065L142.798 10.5815ZM138.909 8.87066C137.437 8.49751 136.367 8.08865 135.651 7.66663L134.635 9.38937C135.583 9.94869 136.86 10.4145 138.417 10.8093L138.909 8.87066ZM135.661 7.6725C134.953 7.24404 134.545 6.81078 134.335 6.40458L132.559 7.32342C132.989 8.15456 133.712 8.83063 134.625 9.3835L135.661 7.6725ZM134.348 6.42925C134.12 5.95765 133.999 5.42541 133.999 4.816H131.999C131.999 5.69993 132.177 6.53302 132.546 7.29875L134.348 6.42925ZM133.999 4.816C133.999 4.33224 134.132 3.86269 134.425 3.39136L132.725 2.33664C132.25 3.10264 131.999 3.93443 131.999 4.816H133.999ZM134.42 3.39905C134.719 2.92693 135.165 2.51635 135.802 2.18038L134.868 0.411615C133.969 0.886317 133.242 1.52107 132.73 2.32895L134.42 3.39905ZM135.802 2.18038C136.391 1.86914 137.16 1.688 138.151 1.688V-0.312C136.923 -0.312 135.815 -0.0878086 134.868 0.411614L135.802 2.18038ZM138.151 1.688C139.282 1.688 140.121 1.78191 140.704 1.94076L141.23 0.0112362C140.405 -0.213908 139.366 -0.312 138.151 -0.312V1.688ZM140.738 1.94942C141.407 2.10679 142.115 2.33537 142.863 2.63874L143.615 0.785261C142.784 0.448631 141.978 0.186542 141.196 0.00258255L140.738 1.94942ZM142.888 2.64833C142.911 2.65694 142.856 2.64061 142.802 2.56306C142.748 2.48511 142.751 2.42655 142.751 2.448H144.751C144.751 2.10678 144.669 1.74422 144.444 1.42093C144.219 1.09805 143.908 0.895058 143.59 0.775671L142.888 2.64833ZM142.751 2.448C142.751 2.41696 142.758 2.37973 142.773 2.34586C142.787 2.31433 142.799 2.3056 142.788 2.31689L144.202 3.73111C144.533 3.39975 144.751 2.96225 144.751 2.448H142.751ZM142.788 2.31689C142.799 2.30546 142.826 2.28402 142.866 2.26732C142.907 2.2507 142.939 2.248 142.951 2.248V4.248C143.427 4.248 143.863 4.07011 144.202 3.73111L142.788 2.31689ZM142.951 2.248C142.981 2.248 143.003 2.24978 143.015 2.25096C143.027 2.2522 143.034 2.2534 143.035 2.2536C143.037 2.25387 143.027 2.25217 143.002 2.24586L142.516 4.18614C142.616 4.211 142.779 4.248 142.951 4.248V2.248ZM143.206 2.32157C143.07 2.25352 142.842 2.16193 142.574 2.05865L141.856 3.92535C141.991 3.97714 142.097 4.01941 142.178 4.05268C142.219 4.06927 142.25 4.08273 142.274 4.09332C142.286 4.09855 142.295 4.10269 142.302 4.10581C142.309 4.10901 142.312 4.11049 142.312 4.11043L143.206 2.32157ZM161.151 1.712L160.634 2.56821L160.641 2.57205L161.151 1.712ZM164.127 4.848L163.247 5.32293L163.251 5.33131L163.256 5.33959L164.127 4.848ZM164.255 13.968L163.357 13.5265L163.355 13.5324L164.255 13.968ZM161.439 17.136L161.973 17.9815L161.977 17.9791L161.439 17.136ZM152.703 17.136L152.171 17.9833L152.182 17.9896L152.703 17.136ZM149.727 13.968L148.844 14.4379L148.85 14.4488L149.727 13.968ZM149.727 4.848L150.613 5.31201V5.31201L149.727 4.848ZM152.639 1.712L152.129 0.851921L152.122 0.855812L152.639 1.712ZM153.471 3.152L153.996 4.00305L154.001 4L153.471 3.152ZM151.103 5.744L150.215 5.28317L150.212 5.28981L151.103 5.744ZM151.103 13.136L150.212 13.5902L150.215 13.5971L150.219 13.6039L151.103 13.136ZM160.607 15.728L160.069 14.885L160.06 14.8904L160.607 15.728ZM162.879 13.136L163.784 13.5618L163.787 13.5551L162.879 13.136ZM162.751 5.712L161.867 6.17989L161.871 6.1866L161.874 6.19326L162.751 5.712ZM160.383 3.152L159.845 3.99492L159.851 3.99903L159.858 4.00304L160.383 3.152ZM157.023 1.592C158.364 1.592 159.56 1.92023 160.634 2.56819L161.667 0.855812C160.267 0.0104399 158.71 -0.408001 157.023 -0.408001V1.592ZM160.641 2.57205C161.736 3.22211 162.604 4.13118 163.247 5.32293L165.007 4.37307C164.199 2.87681 163.082 1.69522 161.661 0.851945L160.641 2.57205ZM163.256 5.33959C163.906 6.4908 164.247 7.85248 164.247 9.456H166.247C166.247 7.56085 165.841 5.85053 164.998 4.35641L163.256 5.33959ZM164.247 9.456C164.247 10.9841 163.944 12.3345 163.357 13.5265L165.152 14.4095C165.888 12.9135 166.247 11.2559 166.247 9.456H164.247ZM163.355 13.5324C162.795 14.6885 161.982 15.6034 160.901 16.2929L161.977 17.9791C163.37 17.09 164.434 15.8928 165.155 14.4036L163.355 13.5324ZM160.905 16.2905C159.878 16.9389 158.6 17.288 157.023 17.288V19.288C158.901 19.288 160.567 18.8692 161.973 17.9815L160.905 16.2905ZM157.023 17.288C155.566 17.288 154.31 16.9453 153.224 16.2824L152.182 17.9896C153.613 18.8627 155.237 19.288 157.023 19.288V17.288ZM153.234 16.2888C152.122 15.5916 151.248 14.6626 150.604 13.4872L148.85 14.4488C149.656 15.9187 150.766 17.1018 152.171 17.9832L153.234 16.2888ZM150.609 13.4982C149.989 12.3318 149.671 11.0233 149.671 9.552H147.671C147.671 11.3234 148.057 12.9588 148.844 14.4378L150.609 13.4982ZM149.671 9.552C149.671 7.89241 149.996 6.48902 150.613 5.31201L148.841 4.38399C148.049 5.89498 147.671 7.62759 147.671 9.552H149.671ZM150.613 5.31201C151.236 4.12159 152.083 3.21554 153.155 2.56819L152.122 0.855812C150.72 1.70179 149.625 2.8864 148.841 4.38399L150.613 5.31201ZM153.149 2.57205C154.233 1.929 155.513 1.592 157.023 1.592V-0.408001C155.204 -0.408001 153.562 0.00166655 152.129 0.851945L153.149 2.57205ZM157.023 1.192C155.513 1.192 154.141 1.5537 152.941 2.304L154.001 4C154.848 3.4703 155.844 3.192 157.023 3.192V1.192ZM152.946 2.30096C151.78 3.0204 150.869 4.02359 150.215 5.28318L151.99 6.20481C152.488 5.24574 153.157 4.52093 153.996 4.00304L152.946 2.30096ZM150.212 5.28981C149.573 6.54258 149.271 7.97294 149.271 9.552H151.271C151.271 8.22973 151.523 7.12142 151.994 6.19819L150.212 5.28981ZM149.271 9.552C149.271 11.0006 149.581 12.3524 150.212 13.5902L151.994 12.6818C151.515 11.7436 151.271 10.7061 151.271 9.552H149.271ZM150.219 13.6039C150.876 14.8444 151.796 15.8408 152.973 16.576L154.033 14.88C153.161 14.3352 152.482 13.6036 151.987 12.6681L150.219 13.6039ZM152.973 16.576C154.171 17.3247 155.531 17.688 157.023 17.688V15.688C155.869 15.688 154.883 15.4113 154.033 14.88L152.973 16.576ZM157.023 17.688C158.585 17.688 159.979 17.3313 161.153 16.5656L160.06 14.8904C159.272 15.4047 158.276 15.688 157.023 15.688V17.688ZM161.145 16.5709C162.308 15.8281 163.192 14.8187 163.784 13.5618L161.974 12.7102C161.541 13.6293 160.91 14.3479 160.069 14.8851L161.145 16.5709ZM163.787 13.5551C164.365 12.3017 164.647 10.9301 164.647 9.456H162.647C162.647 10.6699 162.416 11.7516 161.971 12.7169L163.787 13.5551ZM164.647 9.456C164.647 7.90268 164.316 6.48509 163.627 5.23074L161.874 6.19326C162.38 7.11491 162.647 8.19332 162.647 9.456H164.647ZM163.635 5.24411C162.979 4.00611 162.069 3.01742 160.908 2.30096L159.858 4.00304C160.702 4.52391 161.37 5.24189 161.867 6.17989L163.635 5.24411ZM160.921 2.30908C159.751 1.56224 158.443 1.192 157.023 1.192V3.192C158.077 3.192 159.009 3.46176 159.845 3.99492L160.921 2.30908ZM182.74 17.68L183.559 17.1065L183.551 17.096L183.544 17.0856L182.74 17.68ZM180.212 14.384L179.42 14.9951L179.427 15.0036L180.212 14.384ZM177.299 10.672L176.512 11.2887L176.517 11.2951L177.299 10.672ZM174.387 6.96L173.594 7.56906L173.601 7.57782L174.387 6.96ZM171.923 3.792L172.708 3.17176L170.923 0.915002V3.792H171.923ZM171.699 17.776L172.407 18.4831L172.43 18.4596L172.452 18.4345L171.699 17.776ZM170.548 17.776L169.795 18.4345L169.839 18.4847L169.889 18.5286L170.548 17.776ZM170.548 1.104L169.889 0.351425L169.864 0.373349L169.84 0.396892L170.548 1.104ZM171.956 1.2L171.136 1.77346L171.147 1.78887L171.158 1.80386L171.956 1.2ZM174.036 3.92L173.243 4.52974L173.249 4.53714L174.036 3.92ZM176.82 7.504L176.027 8.11434L176.033 8.12157L176.039 8.12869L176.82 7.504ZM179.891 11.408L179.101 12.0202L179.106 12.0273L179.112 12.0343L179.891 11.408ZM182.771 15.088L181.975 15.6927L183.771 18.0588V15.088H182.771ZM182.995 1.104L182.337 0.351424L182.312 0.373349L182.288 0.396892L182.995 1.104ZM184.148 17.776L184.855 18.4831L184.878 18.4596L184.9 18.4345L184.148 17.776ZM183.544 17.0856C182.811 16.0939 181.961 14.9866 180.996 13.7644L179.427 15.0036C180.382 16.2134 181.218 17.3035 181.935 18.2744L183.544 17.0856ZM181.003 13.7729C180.061 12.5527 179.087 11.3114 178.082 10.0489L176.517 11.2951C177.517 12.5499 178.484 13.7833 179.42 14.9951L181.003 13.7729ZM178.087 10.0553C177.084 8.77498 176.113 7.53726 175.174 6.34218L173.601 7.57782C174.54 8.77208 175.51 10.009 176.512 11.2887L178.087 10.0553ZM175.181 6.35097C174.261 5.15355 173.437 4.09369 172.708 3.17176L171.139 4.41223C171.861 5.32498 172.679 6.37711 173.594 7.56903L175.181 6.35097ZM170.923 3.792V17.2H172.923V3.792H170.923ZM170.923 17.2C170.923 17.1872 170.926 17.1652 170.936 17.1416C170.944 17.1188 170.953 17.1109 170.947 17.1175L172.452 18.4345C172.75 18.094 172.923 17.6717 172.923 17.2H170.923ZM170.992 17.0689C171.013 17.048 171.045 17.0262 171.081 17.012C171.116 16.9986 171.134 17 171.124 17V19C171.591 19 172.048 18.8416 172.407 18.4831L170.992 17.0689ZM171.124 17C171.136 17 171.158 17.0028 171.182 17.012C171.205 17.0208 171.213 17.0292 171.206 17.0234L169.889 18.5286C170.229 18.8265 170.652 19 171.124 19V17ZM171.3 17.1175C171.294 17.1109 171.303 17.1188 171.312 17.1416C171.321 17.1652 171.324 17.1872 171.324 17.2H169.324C169.324 17.6717 169.497 18.094 169.795 18.4345L171.3 17.1175ZM171.324 17.2V1.68H169.324V17.2H171.324ZM171.324 1.68C171.324 1.66956 171.325 1.68797 171.312 1.72245C171.297 1.75898 171.275 1.79025 171.255 1.81111L169.84 0.396892C169.482 0.755428 169.324 1.21241 169.324 1.68H171.324ZM171.206 1.85658C171.221 1.84304 171.217 1.8503 171.192 1.86068C171.165 1.87199 171.129 1.88 171.092 1.88V-0.120001C170.615 -0.120001 170.207 0.073051 169.889 0.351425L171.206 1.85658ZM171.092 1.88C171.157 1.88 171.205 1.88417 171.238 1.88904C171.271 1.89393 171.283 1.89877 171.28 1.89775C171.277 1.8965 171.256 1.88835 171.227 1.86703C171.197 1.8449 171.164 1.81361 171.136 1.77346L172.775 0.626536C172.344 0.0104895 171.634 -0.120001 171.092 -0.120001V1.88ZM171.158 1.80386C171.694 2.5106 172.389 3.41941 173.243 4.52971L174.828 3.31029C173.976 2.20192 173.284 1.2974 172.753 0.596141L171.158 1.80386ZM173.249 4.53714C174.1 5.62251 175.026 6.81487 176.027 8.11434L177.612 6.89366C176.608 5.59046 175.678 4.39349 174.822 3.30286L173.249 4.53714ZM176.039 8.12869C177.059 9.40446 178.08 10.7016 179.101 12.0202L180.682 10.7958C179.655 9.46905 178.628 8.16354 177.6 6.8793L176.039 8.12869ZM179.112 12.0343C180.152 13.3295 181.107 14.549 181.975 15.6927L183.568 14.4833C182.687 13.323 181.721 12.0891 180.671 10.7817L179.112 12.0343ZM183.771 15.088V1.68H181.771V15.088H183.771ZM183.771 1.68C183.771 1.66956 183.773 1.68797 183.76 1.72245C183.745 1.75898 183.723 1.79025 183.703 1.81111L182.288 0.396892C181.93 0.755428 181.771 1.21241 181.771 1.68H183.771ZM183.654 1.85658C183.661 1.85078 183.653 1.85916 183.63 1.868C183.606 1.87721 183.584 1.88 183.572 1.88V-0.120001C183.1 -0.120001 182.677 0.0535135 182.337 0.351424L183.654 1.85658ZM183.572 1.88C183.582 1.88 183.564 1.88141 183.529 1.868C183.493 1.8538 183.461 1.83196 183.44 1.81111L184.855 0.396894C184.496 0.0383573 184.039 -0.120001 183.572 -0.120001V1.88ZM183.44 1.81111C183.42 1.79025 183.398 1.75898 183.383 1.72244C183.37 1.68797 183.372 1.66956 183.372 1.68H185.372C185.372 1.21241 185.213 0.75543 184.855 0.396894L183.44 1.81111ZM183.372 1.68V17.2H185.372V1.68H183.372ZM183.372 17.2C183.372 17.1872 183.374 17.1652 183.383 17.1416C183.392 17.1188 183.401 17.1109 183.395 17.1175L184.9 18.4345C185.198 18.094 185.372 17.6717 185.372 17.2H183.372ZM183.44 17.0689C183.452 17.0575 183.478 17.036 183.519 17.0193C183.559 17.0027 183.591 17 183.604 17V19C184.079 19 184.516 18.8221 184.855 18.4831L183.44 17.0689ZM183.604 17C183.538 17 183.49 16.9958 183.457 16.991C183.424 16.9861 183.412 16.9812 183.415 16.9823C183.418 16.9835 183.439 16.9916 183.468 17.013C183.498 17.0351 183.531 17.0664 183.559 17.1065L181.92 18.2535C182.352 18.8695 183.061 19 183.604 19V17Z" fill="#363636"/>
</svg>
