<svg width="139" height="41" viewBox="0 0 139 41" fill="none" xmlns="http://www.w3.org/2000/svg">
<g style="mix-blend-mode:luminosity">
<path d="M36.7772 31.2159L29.3224 27.2557L11.8035 36.6903L19.1341 41L36.7772 31.2159Z" fill="#66CB33"/>
<path d="M17.6431 19.4517V0L9.93978 3.96023V23.4119L17.6431 19.4517Z" fill="#359846"/>
<path d="M7.33059 25.2756V5.82386L0 9.78409V29.4688L7.33059 25.2756Z" fill="#65CC33"/>
<path d="M38.2682 9.55114L20.625 0V8.15341L38.2682 18.054V9.55114Z" fill="#66CB33"/>
<path d="M47.6377 28.902C46.4646 28.902 45.4844 28.6911 44.697 28.2693C43.9096 27.8324 43.315 27.1997 42.9133 26.3712C42.5115 25.5426 42.2866 24.5258 42.2384 23.3206L45.2996 22.7557C45.3317 23.4637 45.4201 24.0889 45.5647 24.6312C45.7254 25.1735 45.9584 25.5953 46.2637 25.8966C46.5851 26.1828 47.0029 26.326 47.5171 26.326C48.0956 26.326 48.5054 26.1678 48.7464 25.8514C48.9875 25.52 49.108 25.1057 49.108 24.6086C49.108 23.8102 48.9152 23.1549 48.5295 22.6427C48.1438 22.1305 47.6296 21.6183 46.9868 21.1061L44.5282 19.0725C43.8373 18.5151 43.2829 17.8974 42.8651 17.2195C42.4633 16.5266 42.2625 15.6754 42.2625 14.6661C42.2625 13.2199 42.7124 12.1052 43.6123 11.3218C44.5122 10.5385 45.7415 10.1468 47.3002 10.1468C48.2161 10.1468 48.9794 10.2824 49.5901 10.5535C50.2007 10.8096 50.6828 11.1712 51.0363 11.6382C51.4059 12.1052 51.6791 12.64 51.8559 13.2425C52.0326 13.83 52.1451 14.4552 52.1933 15.1181L49.1562 15.6152C49.1241 15.0427 49.0518 14.5305 48.9393 14.0786C48.8428 13.6267 48.6581 13.2727 48.3849 13.0166C48.1278 12.7605 47.7421 12.6324 47.2279 12.6324C46.6976 12.6324 46.2878 12.7981 45.9986 13.1295C45.7254 13.4459 45.5888 13.8451 45.5888 14.3272C45.5888 14.9448 45.7254 15.457 45.9986 15.8637C46.2718 16.2554 46.6655 16.6622 47.1797 17.084L49.6142 19.0951C50.4176 19.7278 51.1006 20.4734 51.663 21.3321C52.2415 22.1757 52.5308 23.2001 52.5308 24.4053C52.5308 25.279 52.3219 26.0548 51.9041 26.7327C51.5023 27.4106 50.9319 27.9454 50.1927 28.3371C49.4696 28.7137 48.6179 28.902 47.6377 28.902Z" fill="#333333"/>
<path d="M56.5836 28.6534V12.8132H53.4742V10.3502H63.2122V12.8132H60.151V28.6534H56.5836Z" fill="#333333"/>
<path d="M70.1971 28.902C68.8151 28.902 67.7144 28.6609 66.8948 28.1789C66.0753 27.6968 65.4888 27.0039 65.1353 26.1C64.7817 25.1961 64.605 24.1266 64.605 22.8913V16.0445C64.605 14.8092 64.7817 13.7547 65.1353 12.881C65.4888 11.9922 66.0753 11.3143 66.8948 10.8473C67.7144 10.3803 68.8151 10.1468 70.1971 10.1468C71.6112 10.1468 72.72 10.3803 73.5234 10.8473C74.343 11.3143 74.9295 11.9922 75.283 12.881C75.6526 13.7547 75.8374 14.8092 75.8374 16.0445V22.9139C75.8374 24.1341 75.6526 25.1961 75.283 26.1C74.9295 26.9888 74.343 27.6818 73.5234 28.1789C72.72 28.6609 71.6112 28.902 70.1971 28.902ZM70.1971 26.4389C70.7916 26.4389 71.2255 26.3184 71.4987 26.0774C71.7879 25.8364 71.9808 25.5049 72.0772 25.0831C72.1736 24.6613 72.2218 24.2019 72.2218 23.7048V15.2762C72.2218 14.764 72.1736 14.3046 72.0772 13.8978C71.9808 13.4911 71.7879 13.1747 71.4987 12.9488C71.2255 12.7077 70.7916 12.5872 70.1971 12.5872C69.6347 12.5872 69.2088 12.7077 68.9196 12.9488C68.6303 13.1747 68.4375 13.4911 68.3411 13.8978C68.2447 14.3046 68.1965 14.764 68.1965 15.2762V23.7048C68.1965 24.2019 68.2366 24.6613 68.317 25.0831C68.4134 25.5049 68.6062 25.8364 68.8955 26.0774C69.1847 26.3184 69.6186 26.4389 70.1971 26.4389Z" fill="#333333"/>
<path d="M83.7309 28.902C82.3007 28.902 81.1759 28.6383 80.3564 28.1111C79.5529 27.5838 78.9905 26.8683 78.6691 25.9644C78.3477 25.0455 78.187 23.991 78.187 22.8009V16.2705C78.187 15.0201 78.3477 13.9355 78.6691 13.0166C78.9905 12.0976 79.5529 11.3896 80.3564 10.8925C81.1759 10.3954 82.3007 10.1468 83.7309 10.1468C85.0807 10.1468 86.1333 10.3652 86.8885 10.8021C87.6599 11.2239 88.2062 11.834 88.5276 12.6324C88.849 13.4308 89.0097 14.3573 89.0097 15.4118V16.9484H85.5869V15.3666C85.5869 14.8544 85.5548 14.3874 85.4905 13.9656C85.4423 13.5438 85.2896 13.2124 85.0325 12.9714C84.7915 12.7153 84.3656 12.5872 83.755 12.5872C83.1444 12.5872 82.6944 12.7228 82.4052 12.994C82.132 13.2501 81.9552 13.6041 81.8749 14.056C81.7946 14.4929 81.7544 14.99 81.7544 15.5474V23.5014C81.7544 24.1642 81.8106 24.7141 81.9231 25.1509C82.0356 25.5727 82.2365 25.8966 82.5257 26.1226C82.831 26.3335 83.2408 26.4389 83.755 26.4389C84.3496 26.4389 84.7674 26.3109 85.0084 26.0548C85.2655 25.7836 85.4262 25.4296 85.4905 24.9928C85.5548 24.5559 85.5869 24.0663 85.5869 23.524V21.8744H89.0097V23.3432C89.0097 24.4278 88.857 25.392 88.5517 26.2356C88.2464 27.0641 87.7081 27.7194 86.9367 28.2015C86.1815 28.6685 85.1129 28.902 83.7309 28.902Z" fill="#333333"/>
<path d="M91.4933 28.6534V10.3502H95.0607V18.3946L98.9174 10.3502H102.316L98.5799 18.5301L102.702 28.6534H99.1584L95.8803 20.3153L95.0607 21.7163V28.6534H91.4933Z" fill="#333333"/>
<path d="M109.343 28.902C107.961 28.902 106.86 28.6609 106.04 28.1789C105.221 27.6968 104.634 27.0039 104.281 26.1C103.927 25.1961 103.75 24.1266 103.75 22.8913V16.0445C103.75 14.8092 103.927 13.7547 104.281 12.881C104.634 11.9922 105.221 11.3143 106.04 10.8473C106.86 10.3803 107.961 10.1468 109.343 10.1468C110.757 10.1468 111.865 10.3803 112.669 10.8473C113.488 11.3143 114.075 11.9922 114.428 12.881C114.798 13.7547 114.983 14.8092 114.983 16.0445V22.9139C114.983 24.1341 114.798 25.1961 114.428 26.1C114.075 26.9888 113.488 27.6818 112.669 28.1789C111.865 28.6609 110.757 28.902 109.343 28.902ZM109.343 26.4389C109.937 26.4389 110.371 26.3184 110.644 26.0774C110.933 25.8364 111.126 25.5049 111.223 25.0831C111.319 24.6613 111.367 24.2019 111.367 23.7048V15.2762C111.367 14.764 111.319 14.3046 111.223 13.8978C111.126 13.4911 110.933 13.1747 110.644 12.9488C110.371 12.7077 109.937 12.5872 109.343 12.5872C108.78 12.5872 108.354 12.7077 108.065 12.9488C107.776 13.1747 107.583 13.4911 107.487 13.8978C107.39 14.3046 107.342 14.764 107.342 15.2762V23.7048C107.342 24.2019 107.382 24.6613 107.462 25.0831C107.559 25.5049 107.752 25.8364 108.041 26.0774C108.33 26.3184 108.764 26.4389 109.343 26.4389Z" fill="#333333"/>
<path d="M117.622 28.6534V10.3502H120.104L124.853 20.7898V10.3502H127.794V28.6534H125.431L120.659 17.7167V28.6534H117.622Z" fill="#333333"/>
<path d="M130.756 28.6534V10.3502H138.952V12.7002H134.324V17.9652H137.964V20.2927H134.324V26.3486H139V28.6534H130.756Z" fill="#333333"/>
<path d="M38.2683 20.733L20.5681 11.1819V19.5682L38.2683 28.8864V20.733Z" fill="#359846"/>
<path d="M19.134 21.6647L1.49093 31.2159L8.94569 35.5255L26.5888 25.625L19.134 21.6647Z" fill="#359846"/>
</g>
</svg>
