<svg width="26" height="26" viewBox="0 0 26 26" fill="none" xmlns="http://www.w3.org/2000/svg">
<path d="M25.125 0.875C24.625 0.375 23.875 0.375 23.375 0.875L21 3.25C18.125 1.375 14.625 2.75 13.375 4L11.5 5.875C11 6.375 11 7.125 11.5 7.625L18.375 14.5C18.625 14.75 19 14.875 19.25 14.875C19.5 14.875 19.875 14.75 20.125 14.5L22 12.625C23.25 11.375 24.625 7.875 22.75 5L25.125 2.625C25.625 2.125 25.625 1.375 25.125 0.875ZM20.25 10.875L19.25 11.875L14.125 6.75L15.125 5.75C15.625 5.25 18.375 3.875 20.25 5.75C22.125 7.625 20.75 10.375 20.25 10.875ZM14 14.625L12.375 16.25L9.75 13.625L11.375 12C11.875 11.5 11.875 10.75 11.375 10.25C10.875 9.75 10.125 9.75 9.625 10.25L8 11.875L7.625 11.5C7.125 11 6.375 11 5.875 11.5L4 13.375C2.75 14.625 1.375 18.125 3.25 21L0.875 23.375C0.375 23.875 0.375 24.625 0.875 25.125C1.125 25.375 1.375 25.5 1.75 25.5C2.125 25.5 2.375 25.375 2.625 25.125L5 22.75C6 23.375 7.125 23.625 8.125 23.625C10 23.625 11.75 22.75 12.625 21.875L14.5 20C15 19.5 15 18.75 14.5 18.25L14.125 18L15.75 16.375C16.25 15.875 16.25 15.125 15.75 14.625C15.25 14.125 14.5 14.125 14 14.625ZM10.875 20.25C10.375 20.75 7.625 22.125 5.75 20.25C3.875 18.375 5.25 15.625 5.75 15.125L6.75 14.125L11.875 19.25L10.875 20.25Z" fill="#183B56"/>
</svg>
